<?xml version="1.0" encoding="iso-8859-1"?>
<!-- Generator: Adobe Illustrator 19.0.0, SVG Export Plug-In . SVG Version: 6.00 Build 0)  -->
<svg version="1.1" id="Capa_1" xmlns="http://www.w3.org/2000/svg" xmlns:xlink="http://www.w3.org/1999/xlink" x="0px" y="0px"
	 viewBox="0 0 480 480" style="enable-background:new 0 0 480 480;" xml:space="preserve">
<g>
	
		<rect x="123.993" y="52.597" transform="matrix(-0.8986 0.4388 -0.4388 -0.8986 357.6656 405.3685)" style="fill:#666666;" width="15.992" height="382.837"/>
	
		<rect x="232.007" y="-8.906" transform="matrix(-0.7071 0.7071 -0.7071 -0.7071 579.4304 240.0147)" style="fill:#666666;" width="16" height="497.835"/>
	<rect x="72" y="232" style="fill:#666666;" width="336" height="16"/>
	
		<rect x="32.525" y="131.972" transform="matrix(-0.7071 0.7071 -0.7071 -0.7071 337.9758 139.9492)" style="fill:#666666;" width="214.958" height="16"/>
	
		<rect x="-8.911" y="231.989" transform="matrix(-0.7071 0.7071 -0.7071 -0.7071 579.4144 239.9761)" style="fill:#666666;" width="497.835" height="16"/>
	
		<rect x="52.588" y="340.003" transform="matrix(-0.8987 0.4386 -0.4386 -0.8987 615.922 553.7215)" style="fill:#666666;" width="382.838" height="15.992"/>
	
		<rect x="332.024" y="32.569" transform="matrix(-0.7071 0.7071 -0.7071 -0.7071 679.4855 -1.3555)" style="fill:#666666;" width="16" height="214.958"/>
	
		<rect x="327.978" y="50.349" transform="matrix(-0.8858 0.464 -0.464 -0.8858 744.9523 296.6671)" style="fill:#666666;" width="16" height="379.268"/>
	<rect x="232" y="72" style="fill:#666666;" width="16" height="336"/>
</g>
<circle style="fill:#FF9F1C;" cx="40" cy="40" r="40"/>
<circle style="fill:#60C4C2;" cx="240" cy="40" r="40"/>
<circle style="fill:#FF9F1C;" cx="440" cy="40" r="40"/>
<g>
	<circle style="fill:#60C4C2;" cx="40" cy="240" r="40"/>
	<circle style="fill:#60C4C2;" cx="440" cy="240" r="40"/>
</g>
<circle style="fill:#FF9F1C;" cx="40" cy="440" r="40"/>
<g>
	<circle style="fill:#60C4C2;" cx="240" cy="440" r="40"/>
	<circle style="fill:#60C4C2;" cx="440" cy="440" r="40"/>
</g>
<g>
</g>
<g>
</g>
<g>
</g>
<g>
</g>
<g>
</g>
<g>
</g>
<g>
</g>
<g>
</g>
<g>
</g>
<g>
</g>
<g>
</g>
<g>
</g>
<g>
</g>
<g>
</g>
<g>
</g>
</svg>
