<?xml version="1.0" encoding="iso-8859-1"?>
<!-- Generator: Adobe Illustrator 19.0.0, SVG Export Plug-In . SVG Version: 6.00 Build 0)  -->
<svg version="1.1" id="Capa_1" xmlns="http://www.w3.org/2000/svg" xmlns:xlink="http://www.w3.org/1999/xlink" x="0px" y="0px"
	 viewBox="0 0 512 512" style="enable-background:new 0 0 512 512;" xml:space="preserve">
<path style="fill:#1E88E5;" d="M480,511.996H32c-17.664,0-32-14.336-32-32v-288h512v288C512,497.66,497.664,511.996,480,511.996z"/>
<path style="fill:#64B5F6;" d="M0,191.996l246.528,156.896c2.816,2.08,6.144,3.104,9.472,3.104s6.656-1.024,9.472-3.104L512,191.996
	L265.6,3.196c-5.696-4.256-13.504-4.256-19.2,0L0,191.996z"/>
<path style="fill:#2196F3;" d="M480,511.996H32c-17.952,0-32-14.048-32-32c0-5.088,2.432-9.888,6.528-12.896l240-160
	c2.816-2.08,6.144-3.104,9.472-3.104s6.656,1.024,9.472,3.104l240,160c4.096,3.008,6.528,7.808,6.528,12.896
	C512,497.948,497.952,511.996,480,511.996z"/>
<g>
</g>
<g>
</g>
<g>
</g>
<g>
</g>
<g>
</g>
<g>
</g>
<g>
</g>
<g>
</g>
<g>
</g>
<g>
</g>
<g>
</g>
<g>
</g>
<g>
</g>
<g>
</g>
<g>
</g>
</svg>
