<svg height="512" viewBox="0 0 64 64" width="512" xmlns="http://www.w3.org/2000/svg"><g id="Flat"><g id="Color"><g><g><path d="m3 3h42v4h-42z" fill="#d0d8da"/><path d="m3 55h42v4h-42z" fill="#d0d8da"/><g><path d="m7 47h34v8h-34z" fill="#d0d8da"/><path d="m7 39h34v8h-34z" fill="#d0d8da"/><path d="m11 39h-4v8h34v-4h-26a4 4 0 0 1 -4-4z" fill="#93999a"/><path d="m11 47h-4v8h34v-4h-26a4 4 0 0 1 -4-4z" fill="#93999a"/><path d="m7 31h34v8h-34z" fill="#d0d8da"/><path d="m11 31h-4v8h34v-4h-26a4 4 0 0 1 -4-4z" fill="#93999a"/></g><path d="m7 23h34v8h-34z" fill="#d0d8da"/><path d="m7 15h34v8h-34z" fill="#d0d8da"/><path d="m11 15h-4v8h34v-4h-26a4 4 0 0 1 -4-4z" fill="#93999a"/><path d="m11 23h-4v8h34v-4h-26a4 4 0 0 1 -4-4z" fill="#93999a"/><path d="m7 7h34v8h-34z" fill="#d0d8da"/><path d="m11 7h-4v8h34v-4h-26a4 4 0 0 1 -4-4z" fill="#93999a"/><path d="m7 3h-4v4h42v-2h-36a2 2 0 0 1 -2-2z" fill="#93999a"/><path d="m7 55h-4v4h42v-2h-36a2 2 0 0 1 -2-2z" fill="#93999a"/><circle cx="28" cy="19" fill="#57b7eb" r="1"/><circle cx="32" cy="19" fill="#57b7eb" r="1"/><path d="m23 20h-12a1 1 0 0 1 0-2h12a1 1 0 0 1 0 2z" fill="#57b7eb"/><circle cx="28" cy="11" fill="#57b7eb" r="1"/><circle cx="32" cy="11" fill="#57b7eb" r="1"/><circle cx="36" cy="11" fill="#57b7eb" r="1"/><path d="m23 12h-12a1 1 0 0 1 0-2h12a1 1 0 0 1 0 2z" fill="#57b7eb"/><path d="m22 28h-7a1 1 0 0 1 0-2h7a1 1 0 0 1 0 2z" fill="#57b7eb"/><path d="m15 52h-3a1 1 0 0 1 0-2h3a1 1 0 0 1 0 2z" fill="#57b7eb"/><path d="m14 36h-2a1 1 0 0 1 0-2h2a1 1 0 0 1 0 2z" fill="#57b7eb"/><circle cx="18" cy="35" fill="#57b7eb" r="1"/><circle cx="12" cy="43" fill="#4891d3" r="1"/><circle cx="16" cy="43" fill="#57b7eb" r="1"/><circle cx="19" cy="51" fill="#57b7eb" r="1"/><g fill="#4891d3"><circle cx="12" cy="27" r="1"/><path d="m20 51a1 1 0 0 1 -2 0z"/><path d="m17 43a1 1 0 0 1 -2 0z"/><path d="m19 35a1 1 0 0 1 -2 0z"/><path d="m29 19a1 1 0 0 1 -2 0z"/><path d="m33 19a1 1 0 0 1 -2 0z"/><path d="m29 11a1 1 0 0 1 -2 0z"/><path d="m33 11a1 1 0 0 1 -2 0z"/><path d="m37 11a1 1 0 0 1 -2 0z"/><path d="m12.38 10h-1.38a1 1 0 0 0 0 2h12a1 1 0 0 0 1-1h-9a3.963 3.963 0 0 1 -2.62-1z"/><path d="m12.38 18h-1.38a1 1 0 0 0 0 2h12a1 1 0 0 0 1-1h-9a3.963 3.963 0 0 1 -2.62-1z"/><path d="m14.027 26.867a.979.979 0 0 0 -.027.133 1 1 0 0 0 1 1h7a1 1 0 0 0 1-1h-8a3.952 3.952 0 0 1 -.973-.133z"/><path d="m12 34a1 1 0 0 0 0 2h2a1 1 0 0 0 1-1 3.963 3.963 0 0 1 -2.62-1z"/><path d="m12.38 50h-.38a1 1 0 0 0 0 2h3a1 1 0 0 0 1-1h-1a3.963 3.963 0 0 1 -2.62-1z"/></g></g><g><circle cx="41" cy="41" fill="#f9e109" r="20"/><path d="m48 55a19.974 19.974 0 0 1 -16.141-31.775 19.989 19.989 0 1 0 25.282 29.55 19.891 19.891 0 0 1 -9.141 2.225z" fill="#fcbc04"/><circle cx="41" cy="41" fill="#fcbc04" r="16"/><path d="m41 25a15.957 15.957 0 0 0 -12.7 6.3 15.98 15.98 0 0 1 22.4 22.4 15.986 15.986 0 0 0 -9.7-28.7z" fill="#e59730"/><path d="m48 55a19.969 19.969 0 0 1 -19.629-23.8 15.986 15.986 0 0 0 20.436 23.759c-.27.011-.535.041-.807.041z" fill="#e59730"/><g fill="#57b7eb"><path d="m29 36a2 2 0 0 1 2 2 1 1 0 0 0 2 0 4 4 0 1 0 -4 4 2 2 0 1 1 -2 2 1 1 0 0 0 -2 0 4 4 0 1 0 4-4 2 2 0 0 1 0-4z"/><path d="m56 46h-5v-11a1 1 0 0 0 -2 0v12a1 1 0 0 0 1 1h6a1 1 0 0 0 0-2z"/><path d="m41 34a6.006 6.006 0 0 0 -6 6v2a5.99 5.99 0 0 0 9.471 4.885l.822.822a1 1 0 0 0 1.414-1.414l-.822-.822a5.961 5.961 0 0 0 1.115-3.471v-2a6.006 6.006 0 0 0 -6-6zm1.707 8.293a1 1 0 0 0 -1.414 1.414l1.726 1.726a3.947 3.947 0 0 1 -2.019.567 4 4 0 0 1 -4-4v-2a4 4 0 0 1 8 0v2a3.947 3.947 0 0 1 -.567 2.019z"/></g></g></g></g></g></svg>