<?xml version="1.0" encoding="utf-8"?>
<!-- Generator: Adobe Illustrator 19.0.0, SVG Export Plug-In . SVG Version: 6.00 Build 0)  -->
<svg version="1.1" id="Layer_1" xmlns="http://www.w3.org/2000/svg" xmlns:xlink="http://www.w3.org/1999/xlink" x="0px" y="0px"
	 viewBox="0 0 500 500" style="enable-background:new 0 0 500 500;" xml:space="preserve">
<style type="text/css">
	.st0{fill:#050A07;}
	.st1{fill:#2B2B2B;}
	.st2{fill:#0F1111;}
</style>
<g id="XMLID_1_">
	<path id="XMLID_3_" class="st0" d="M290.6,238.5c0,0.7-0.6,1.2-1.2,1.3c-0.6,0.1-1.1-0.6-1.2-1.3c0-0.5,0.5-1,1.2-0.7
		C290.1,237.9,290.6,238.2,290.6,238.5"/>
	<path id="XMLID_4_" class="st0" d="M257.4,324.7l-1.1,0.6c-0.6,1.9-2,4.8-6.4,7c0,0,4.3-0.2,6.3-4.4c-0.1,0.5-1,5-6.8,12.6
		c0,0,0.2,1.2,1.2,0.2C256.5,334.8,257.6,326.1,257.4,324.7"/>
	<path id="XMLID_5_" class="st0" d="M308,331.9c0.5-0.5-0.9,0.4-0.3,0.2c0.4-0.2,0.9-0.2,1.4-0.3c1.8-0.1,3.6,0.9,5,1.8l1.1-0.6
		c-2.4-1.5-5.9-2.8-8.3-0.4L308,331.9"/>
	<path id="XMLID_6_" class="st0" d="M320.6,341.1c0.9,0.8,2.1,1.2,3.4,1.2l1.1-0.6c-1.2,0-2.4-0.4-3.3-1.2L320.6,341.1"/>
	<path id="XMLID_7_" class="st0" d="M355.3,192.8c0-0.5-0.4-0.6-0.8-0.2c-6.4,5.8-17.7,6-25.4,3.5c-0.9-0.3-1.6,0.5-1.6,0.5
		C336.2,199.2,350.5,200.1,355.3,192.8"/>
	<path id="XMLID_8_" class="st0" d="M328.2,194.2c-1.7-0.2-1.3,0.5-1.3,0.5c1.9,0.6,3.8,0.9,5.6,0.9c3.8,1.3,8-0.1,8-0.1
		c-1.2,0-3.1,0-4.7-0.1c4.6-0.8,10.7-3.1,12.9-5.8C346.5,192.2,334.1,195,328.2,194.2"/>
	<polyline id="XMLID_9_" class="st0" points="250.8,183.9 250.6,183.8 250.8,183.9 	"/>
	<path id="XMLID_10_" class="st0" d="M262.3,189.1c-2.7-3.8-9-4.6-11.5-5.3C256.6,185.6,262,189.1,262.3,189.1"/>
	<path id="XMLID_11_" class="st0" d="M308.3,205.6c1.3,0.7,2.3-1,2.3-2.1c0-0.8-1.1-2.2-2.3-2c-1.3,0.5-2.3,1-2.3,2.8
		C305.9,205.3,306.9,206.1,308.3,205.6"/>
	<path id="XMLID_12_" class="st0" d="M297.5,159.1c-0.8,0.3-2.2,0-2.2,0c2.1,2.6,4,0.7,4,0.7C300.2,158.6,297.5,159.1,297.5,159.1"
		/>
	<path id="XMLID_13_" class="st0" d="M281,163.8l-0.8,0.6c0,0-1.2-0.3-0.4,0.9c0,0,1.3,2,2.2,1.7c0,0,0.9-0.2-0.2-1
		C281.9,165.9,282.1,164.2,281,163.8"/>
	<path id="XMLID_17_" class="st0" d="M97.6,250.9c-1.6-1.3-10.2-1.7-12.4-1.9c-2.1-0.2-7.2-0.6-7.6-0.6c-0.6-0.1-1.2-0.1-1.6-0.6
		c-0.3-0.4-0.3-0.7-0.9-0.8l-0.9,0.4h0v0v0c-0.5,0.3-0.3,1.1-0.3,1.6c0,1.1,0,2.2-0.1,3.3c0,0.7,0.5,0.8,1,0.6c0,0,1.4-1.4,2.4-1.4
		c3.9,0.1,15.2,0.2,16.8,0.6c2.8,0.7,3.2,4.7,1.2,6.4l0,0.1c0,0-1.4,0.4-2,0.4c-5,0-10-0.1-14.9-0.1c-0.6,0-1.1-0.2-1.6-0.6
		c-0.4-0.3-0.8-0.8-1.4-0.6v0l-0.1,0.1l-0.5,0.3c-0.9,0.7-0.4,2.5-0.4,3.5c0,0.7-0.3,5.3,0.6,5.6c0.5,0.2,1.4-1,1.8-1.5
		c1.2-0.4,9.1-0.4,11.6-0.5c3.1-0.1,6.8,0.1,9.4-1.8c1.8-1.3,1.7-3.7,1.7-5.7C99.3,255.4,99.6,252.6,97.6,250.9L97.6,250.9z
		 M75.4,252.1l0.4-0.3l0,0L75.4,252.1L75.4,252.1z M94.3,264.8c1-0.2,1.9-0.5,2.5-0.8C96.1,264.4,95.3,264.6,94.3,264.8"/>
	<polyline id="XMLID_18_" class="st1" points="326.2,93.3 326.1,93.4 326.2,93.4 326.2,93.3 	"/>
	<line id="XMLID_19_" class="st1" x1="76.5" y1="240.3" x2="76.5" y2="240.3"/>
	<path id="XMLID_22_" class="st0" d="M97.4,226.4c-0.4,0-5.2-0.8-7.3-1.2c-3.6-0.6-7.2-1-10.8-1.8c-0.7-0.1-0.9-0.4-1.2-1
		c-0.2-0.4-0.8-1.4-1.3-1.1h0l-0.5,0.3l0.1-0.1v0.1c-0.6,0.5-0.5,1.3-0.7,2.3c-0.2,1.1-0.3,2.2-0.5,3.3c-0.1,0.6,0.1,1.3,0.8,0.9
		v0.1l0.1-0.1l0.4-0.2c0.4-0.3,0.6-0.6,1.1-0.7c0.6-0.2,9.2,0.7,8.7,1c0.5-0.3-6.3,3.7-8.5,5c-1,0.6-2.2,1.1-3,1.9
		c-0.6,0.6-0.9,4.3-1.1,5.3c-0.3,1.5,0.4,1.5,0.6,1.5h0.1l2.2-1.5c0.8-0.3,1.7-0.2,2.5-0.2c4.4,0.3,16.8,1.1,17,1.5l0.4,0.8
		c0.1,1.2,1,1.3,1,1.3c0.9,0.3,0.9-1.3,1-1.9c0.2-1.5,0.5-3.2,0.4-4.7c-0.1-0.7-1.2,0-1.2,0c-0.1,0.1-0.4,1.2-1.1,1.3
		c-0.6,0.2-1.6,0.2-2.4,0c-1.5-0.2-10.8-0.9-11.2-1.8c3.1-1.8,16.3-9.3,16.3-9.3v0l0.2-0.2C100.6,226.5,97.7,226.4,97.4,226.4
		 M76.6,227.6l0.2-0.1l0.8-0.4L76.6,227.6"/>
	<polyline id="XMLID_23_" class="st0" points="76.4,240.3 75.8,240.7 76.4,240.3 	"/>
	<path id="XMLID_24_" class="st0" d="M342.3,123.2c-1,1.3-2.2,1.9-3.7,2.8h0c-0.1,0.1-1,0.8,1,1.8c1,0.5,2,1.3,2.9,2
		c1.8,1.6,2.1-0.2,2.2-0.6c0.2-1.3,0.1-2.6,0.9-3.8c2.3-3.3,4.6-6.5,6.8-9.7c0.3,0,0.1,1.9,0.1,2.6c-0.2,2.3-1.5,13.9-1.9,17.5
		c-0.1,1.4,1.1,2.3,2.1,2.2l0.7-0.5c0.7-1.1,0.7-2.6,1.4-3.7c0.2-0.4,0.6-0.7,0.9-1.1c2.9-3.3,5.8-6.6,8.7-9.9
		c0.8-1,1.6-1.7,2.9-1.9l1.5-0.6c0.3-0.3,0.4-0.7-0.1-1.2c-1.1-1.2-2.8-1.9-3.7-3.3c-0.4-0.6-1.2-0.7-1.1-0.8
		c-0.1,0.1-1.5-0.2-0.9,1.6c0.4,1.2-0.2,2.7-0.8,3.8c-1.3,1.8-2.5,3.5-3.8,5.3c-0.5-0.7,0.4-8.5,0.6-10.9c0.1-1.4,0.6-3.6-0.6-4.7
		c-0.8-0.7-4.2-3.3-5.2-3.5l-0.8,0.4c-0.3,0.4-0.2,0.9-0.2,1.4c0,0.7-0.1,1.5-0.3,2.3c-0.2,0.9-0.8,1.7-1.4,2.5
		C349.1,114.6,343.7,121.4,342.3,123.2"/>
	<polyline id="XMLID_25_" class="st1" points="79.2,215.5 79.2,215.5 79.1,215.6 79.2,215.5 	"/>
	<path id="XMLID_28_" class="st0" d="M101.5,219.5c0.2-1.2,0.4-2.4,0.7-3.6c0.1-0.6,0.5-1.1,0.6-1.8c0.3-1.2-0.3-1.2-0.9-1
		c-0.1,0-2.2,1-4.7,0.3c-2.4-0.6-13-2.6-15-4.2c-0.6-0.5-1.7-2.3-2.6-2v0c0,0-0.4-0.2-1.1,3.1c-0.4,1.8-0.8,3.5-1,5.4
		c0,0.7,0.5,0.6,0.8,0.5c0.7-0.2,0.8-0.9,1.5-0.9c0.7,0,14.7,2.5,17.6,3.8c1.1,0.5,1.8,1.5,2.7,2.3C100.8,222,101.4,220,101.5,219.5
		L101.5,219.5z M79.1,215.5l0.2-0.1L79.1,215.5"/>
	<path id="XMLID_32_" class="st0" d="M397.3,197.1c-1.1,0.5-1.5,0.4-1.9,0.6c-0.4,0.2-3.2-0.1-2.5,1.5c0.5,1.1,0.8,2.2,1.1,3.4
		c0.2,0.6,0.9,3.5,1.8,3.1c0.9-0.5,1.3-1.6,2.2-2.3c0.6-0.2,1.1-0.5,1.7-0.7c0,0,13.1-4.8,15.4-5.4c0.7-0.2,1.1,0.4,1.7,0.3
		c0,0.1,1.2,0.2,0.4-1.9c-0.4-1.1-0.8-2.3-1.2-3.5c-0.2-0.9-0.1-3.2-1.6-2.5v0l-1.1,1.1c-0.2,0.2-2.4,1.4-2.8,1.6
		C407.8,193.1,397.3,197.1,397.3,197.1L397.3,197.1L397.3,197.1z M397.4,203.5l0.3-0.2h0L397.4,203.5L397.4,203.5z M397.8,203.3
		L397.8,203.3L397.8,203.3"/>
	<path id="XMLID_33_" class="st0" d="M133.5,119.9c0.9,0.1,1.5,0.7,2.1,1.3c3.5,3.3,7.3,6.6,10.1,10.5c0.8,1.1,1.3,2.4,1.6,3.7
		c0.4,1.9,1.9,0.4,1.9,0.3v0c1.8-1.8,5-3.9,5.2-4c0.3-0.2,1.4-1.1,0.3-1.7h0c-1.2-0.1-2.2-0.5-3.1-1.3c-2.6-2.8-10-10.7-10.9-11.9
		c-0.8-1-0.8-2.3-1.3-3.5l-0.7-0.3l0,0c0,0-2.8,1.5-6,5c-0.3,0.3-0.7,0.6-0.8,1.1C131.8,119.9,133.3,119.9,133.5,119.9"/>
	<path id="XMLID_36_" class="st0" d="M358.9,140.8c-0.4,3.4,1.6,6.7,4.7,8.3c4.6,2.4,10.2-1.2,13.4-4.3c2.3-2.3,4.4-5,5-8.3
		c0.7-3.6-1.7-6.9-4.8-8.6c-4.8-2.7-10.4,1.1-13.7,4.4C361.1,134.6,359.3,137.6,358.9,140.8L358.9,140.8z M369.2,135.1
		c1.4-1.2,9-7.9,9.5-3c0.2,1.7-1.5,3.4-2.4,4.6c-1.6,1.9-3.4,3.7-5.2,5.5c-0.6,0.5-1.2,1.2-1.8,1.8c-0.6,0.6-1.2,1-1.7,1.4
		c-0.5,0.3-1.1,0.5-1.6,0.6c-1.4,0.2-2.6-1.1-3.1-2.2c-0.6-1.4,0.5-2.9,1.2-3.9C365.5,138.1,367.4,136.6,369.2,135.1"/>
	<path id="XMLID_40_" class="st0" d="M102.6,157.7c1.9-0.1,3.7,1.6,5.1,2.6c3.2,2.3,6.4,4.5,9.6,6.8c0.7,0.7,1.2,1.5,1.5,2.5
		c0.1,0.3,0.1,1.7,0.8,1.3h0v-0.1c0.5,0,3.4-4.6,4.6-6.5c1-1.6-1.5-1.3-2.3-1.7c-0.9-0.4-1.8-1.1-2.7-1.6c-1.5-0.8-4.8-2.3-2.5-4
		c1.4-0.6,3.7-0.3,5.2-0.4c2.5-0.1,5.1-0.3,7.6-1.1c1-0.3,2.3-0.9,2.6-1.9c0.5-1.5-1.8-1.1-2.5-1.1c-1,0-7.6-0.7-9.8-1.1
		c-1.1-0.2-1.4-0.1-1.3-1.2c0.1-1.5-0.6-2.7-1.6-3.7c-2.2-2-5.3-2.2-7.8-0.8c0,0-2.1,1.2-6.3,7.8c-0.7,1-1.3,2-1.9,3
		C99.7,158.3,101.4,157.7,102.6,157.7L102.6,157.7z M112.7,157l-0.2,0L112.7,157L112.7,157L112.7,157z M106.6,151.4
		c0.5-0.7,1-1.4,1.6-2c1.8-0.5,4,1.4,5.2,2.4c1.6,1.4,0.6,3.6-0.6,5c-0.9,0-2.1-1.1-2.7-1.5c-1-0.7-2.1-1.4-3.1-2
		C106.5,152.6,106.1,152.2,106.6,151.4"/>
	<path id="XMLID_46_" class="st0" d="M401.5,227.3L401.5,227.3L401.5,227.3l9.2-6.6l2.2,1.1c1.8,0.7,4,0.4,5.8-0.4
		c2.2-1,3.6-3,3.8-5.4c0.2-2.2-0.7-4.6-1.3-6.8c-0.5-1.7-0.8-3.3-1.3-4.9c-0.3-0.9-0.5-1.3-1.1-1.1l-0.1,0l0,0l-0.1,0.1l-0.2,0.1h0
		l-0.1,0l-0.1,0.1l0,0l-0.3,0.5c-0.3,0.6-0.8,1.1-1.4,1.5c-0.5,0.2-1.1,0.4-1.7,0.6c-0.8,0.2-11.7,2.8-14.1,3.4
		c-1,0-2.2,0.1-2.8-0.6c-0.5-0.5-2.7-0.1-1.9,1.2c1.2,2.1,0.9,4.9,1.6,7.1c0.2,0.5,1.1,0.1,1.8-0.6c0.7-0.7,1.5-1.1,2.4-1.4
		c1-0.3,4.5-1.6,5.4-1.4c2.6,0.7-1,3.4-1.9,4.2c-2.1,1.9-4,4.1-5.2,6.6c-0.4,1-1.1,3,0.5,3.1L401.5,227.3L401.5,227.3z M418.8,215.6
		l-0.3,0.1L418.8,215.6z M417.5,210.7l0.3-0.1L417.5,210.7c1.2,0,1.6,0.2,1.8,1.3c0.3,1.2,0.6,2.6-0.4,3.5c-0.5,0.2-1,0.5-1.6,0.6
		l-1,0.2c-1,0.2-2.1,0.2-2.9-0.1c-1-0.4-2.5-3.2-1.8-4.2C413.5,211.5,415.5,211.1,417.5,210.7L417.5,210.7z M411.5,211.9
		L411.5,211.9l-0.2,0.1L411.5,211.9L411.5,211.9z M411.2,212.1L411.2,212.1L411.2,212.1L411.2,212.1"/>
	<path id="XMLID_47_" class="st0" d="M126.9,141.5c0.2-0.1,4-2.2,5.4-3c2.7-1.4,5.4-2,5.6,1.1c0.2,1.8-1.4,3.5-2.6,4.6
		c-2.2,1.9-4.9,2.4-7.7,3c-0.6,0.1-1.1,0.3-1.6,0.5v-0.1c-0.1,0.1-0.8,0.6,0.1,1.1c1.3,0.7,2.7,1.2,4.1,1.7c0.5,0.2,2,1,2.5,0.8
		l0.7-0.4c0.8-1.5,1.9-2.7,3.2-3.8c1.5-1.2,2.7-2.3,3.6-4c0.8-1.6,1.2-3.4,1-5.1c-0.4-3.3-3.3-5.5-6.6-5.4c-2.8,0-10,4-10.5,4.2
		c-1.4,0.6-2.9,0.8-3.9-0.5c-1.1-1.3,0.3-3.6,1.6-4.2c1.4-0.7,3.1-0.8,4.6-1c1.3-0.2,3-0.1,4.1-1c1.3-1.1-2.8-2.6-3.5-3
		c-0.8-0.3-1.9-0.7-1.9-0.7c-0.6-0.4-1.1,1.9-2,2.4c-0.4,0.2-3.9,2.5-4.5,3.1c-2,2.5-3,6.4-0.4,8.8
		C120.4,142.8,124.1,142.6,126.9,141.5"/>
	<path id="XMLID_48_" class="st0" d="M382.5,157.5c0.6,2.5,0.8,5.1-1.4,6.8c-4.1,1.8-5.8-4.8-5.9-7.7c-0.1-1.9,0.7-3.6,0.8-5.5
		c0-0.8-0.6-1.1-1.3-0.7l0,0c0,0-3.2,3-4.3,4.5c-0.7,0.9-1.7,1.8-0.7,2.7c1.7,1.4,2.5,2.8,3.2,4.9c1,3.4,4.2,5.5,7.9,5.3
		c2.1-0.2,4-1.3,5.5-2.7c2.5-2.3,3.1-5.6,2.5-8.8c-0.4-2.4-1.7-4.7-1.8-7.1c0-0.6,0.2-1.1,0.7-1.5c3-1.2,4.1,3.7,4.2,5.8
		c0,1.4-0.2,2.7-0.5,4c-0.1,0.4-0.6,1,0,1.1c1.2,0.1,4.9-3.4,5.1-3.5c1.4-1-0.9-2.5-1.5-3.6c-0.4-0.7-0.6-1.5-1-2.2
		c-0.2-0.5-0.6-1-0.9-1.5c-1.6-2.6-5.5-5.5-8.7-3.7l-0.9,0.6c-0.1,0.1-2.5,2.1-2.7,4.2C380.9,151.7,381.8,154.7,382.5,157.5"/>
	<path id="XMLID_49_" class="st0" d="M420.6,249.2c-0.1,0-3.6-0.1-4.9,1.1c-2.1,2.1-3.7,5.8-4.7,8.7c-0.8,2.4-2.1,4.6-4.9,4.7
		c-6.2-2.3-2.8-8.8-0.5-10.6c1.7-1.4,2.7-2.2,3.8-3c0,0,0.9-1.1-0.1-0.8l-7.8,1.4c0.7,1.3,0.4,3.7-0.4,5.8c-1.2,3.4-0.2,7.8,2.8,9.7
		c1.7,1.1,4,1.3,6.1,1.1c3.4-0.4,5.2-2.7,6.6-5.7c1.8-3.7,1.2-6,3.4-7.9c0.5-0.4,1-0.4,1.6-0.5c3.1,0.8,1.7,5.9,0.5,7.6
		c-0.8,1.1-4.2,3.4-3.9,3.4c0.1,0-0.7,1.1,0.5,1c1.2-0.2,5.1-1.3,5.3-1.4c1-0.5,0.4-1.5,0.7-2.6c0.1-0.8,0.6-3.5,0.7-4.1
		C425.8,254.2,424.3,249.6,420.6,249.2"/>
	<path id="XMLID_52_" class="st0" d="M145.9,110c1.9,0.7,3.1,1.8,4.2,3.4c1.3,1.9,2.6,3.8,3.9,5.8c1.1,1.6,2.1,3.1,3.2,4.7
		c0.3,0.7,0.4,1.5,0.4,2.3c0,0.6-0.3,1.2,0.4,1.6l0.6-0.3c0.8-0.6,1.6-1.3,2.5-1.9c1.3-0.9,5.8-4.3,6.4-5.4c1.3-1.8,1.8-3.9,1.4-6.4
		c-0.5-4-3.3-8-6.7-10.1c-2.9-1.9-6.1-1.3-9.1,0.1l0.2,0c-1.1,0.5-8.1,4.6-8.6,5.3C144.3,109.5,145.6,109.9,145.9,110L145.9,110z
		 M153.7,105.7c2.1-1,3.8,0.7,5.1,2.3c1.6,2.1,2.9,4.4,4.3,6.6c1.2,2,2.7,4.5,0.5,6.2c-1.2,0.3-1.6-0.7-2.3-1.6c-1-1.5-2-3-3-4.5
		c-1.6-2.4-3.2-4.7-4.8-7.1l-0.2,0.1l0.2-0.1C152.4,106.6,152.8,106.3,153.7,105.7"/>
	<path id="XMLID_55_" class="st0" d="M190.1,85.6c0.9,0.7,2,1.5,2.3,2.7c1.3,4.8,2.7,9.7,4.1,14.5c0.3,0.8,0.2,1.6,0,2.4
		c-0.1,0.6-0.7,1.2-0.3,1.7c0.5,0.7,3.5-0.6,4.1-0.9c2.2-0.8,4.5-1.4,6.5-2.6c6.3-3.7,5.3-11.6,2.5-17.2c-1.2-2.4-3-4.4-5.6-5
		c-3.2-0.7-6.8,0.5-9.8,1.4c-1.3,0.4-2.8,0.9-3.9,1.8C189.5,84.8,189.7,85.3,190.1,85.6L190.1,85.6z M198.5,84.2
		c4.8-1.8,6.2,7.4,6.9,10.3c0.6,2.5,1.5,5.7-0.8,7.5c-1.7,0.6-1.8-1-2.1-2.2c-0.5-1.8-1-3.5-1.5-5.2c-0.9-2.9-1.8-5.7-2.7-8.6
		C197.9,85.1,197.9,84.6,198.5,84.2"/>
	<path id="XMLID_59_" class="st0" d="M227.9,77.6c0.5,0.6,0.6,1.3,0.7,2.1c0.5,2,0.8,4,1.1,6c0.4,2.9,0.5,5.8,0.6,8.7
		c0,0.7,0,1.5,0.1,2.2c0,0.5-0.4,1-0.7,1.4c-0.5,0.9,0.9,1.1,1.4,1c3.1-0.4,6.6-0.4,9.5-1.5c0.8-0.3,1.6-0.6,2.3-1.1
		c0.5-0.3,1-0.7,1.4-1.1c2.4-2.3,3.1-5.7,3.2-8.9c0-2.9-0.5-6.4-2.1-8.9c-1.2-2.1-3.5-3-5.8-3.3c-3.4-0.4-7.2,0-10.6,0.5
		c-0.6,0.1-2.8,0.6-2.3,1.6C227.1,76.8,227.6,77.2,227.9,77.6L227.9,77.6z M235.5,76.5c5.4-1.6,4.9,9.1,4.9,11.9
		c0.1,2.5,0.5,5.3-1.6,7.1c-1.5,0.5-1.7-1.2-1.8-2.3c-0.2-1.9-0.4-3.8-0.6-5.7c-0.3-3.3-0.7-6.6-1-9.9L235.5,76.5z M235.2,76.6
		L235.2,76.6l-0.1,0.2L235.2,76.6"/>
	<path id="XMLID_64_" class="st0" d="M172.5,97.7c0.5,2.7,0.8,5.4,1,8.1c0.1,2.1,0.3,4.2,0.4,6.3c0,1.3,0.1,2.4-0.4,3.7
		c-0.3,0.6-1,1.4-0.8,2.1c0.1,0.5,1.3,0,1.3,0l0.4-0.3c1.3-1,4.7-2.4,5-2.5c0.5-0.3,1-0.6,0.9-1.1c-0.1-0.7-1.8-1.4-2.2-2.1
		c-0.5-0.8-0.8-2.6-0.2-3.2c1-0.5,4.5-2,5.3-2.1c0.6-0.1,2.1,2.1,2.1,2.3c0,0.4,0.2,0.8,0.2,1.3c-0.1,0.7,0.1,1.3,0.9,1.1
		c0.7-0.1,7.4-3.4,7.5-3.4c1.4-0.8-1.6-1.5-2.1-1.9c-1.1-0.9-9.1-9.8-11.8-13.4c-0.6-0.8-0.7-2-0.8-3c0-0.5-4.4,0.9-4.9,1.1
		c-0.4,0.1-3,1.5-3.4,1.9l0.7,1.6C172.2,95.1,172.3,96.6,172.5,97.7L172.5,97.7z M177.5,108.8l0.1-0.1L177.5,108.8z M180.3,103
		c0.5,0.6,1,1.1,0.3,1.7c-0.2,0.1-2.2,1-2.7,1.1c-0.5,0.1-0.9,0.1-1.3,0l-0.3-1.8c-0.1-1.8-0.5-5.8-0.5-5.9
		C177,98.4,179.7,102.3,180.3,103z M176,116.3c-0.7,0.4-1.3,0.9-1.9,1.3C174.5,117.4,175.1,116.8,176,116.3"/>
	<path id="XMLID_72_" class="st0" d="M387,175.7c-1.5,0.1-2.7-0.5-4-0.2l-0.8,0.2c-0.6,0.4,0.4,1.5,0.6,1.7c0.4,0.6,1.1,2.4,1.2,2.7
		c0.3,0.8,1.1,0.7,1.8,0.2l1.5-1.4c1-0.5,2.1-0.7,3-1c1-0.2,1.3,0.1,1.7,0.9c0.5,1.1,1,2.2,1.5,3.3c0.3,0.7,0.7,1.3,0.5,2
		c-0.1,0.6-3.4,2.7-4.1,2.9l-1.2,0.1h0c0,0-0.7,0.3-0.6,0.9c0.1,0.7,0.7,1.3,1,1.9c0.6,1.1,0.8,2.5,1.2,3.6c0.9,2.3,2,1.4,1.9,1.4
		c0.3-0.3,0.3-0.7,0.6-1.2c0.7-1.4,2.2-2.6,3.4-3.6c3.4-3.2,10.8-9.9,11-10.1c0.1,0,2.9-0.3,3.1-0.9l0.1,0l0.1,0h-0.1
		c1.3-1-2.9-6.1-2.9-7.3c0-0.9-1-0.7-0.9-0.8c-0.1,0.1-0.9,0.1-2.2,2l-1.6,0.4C398.7,174.6,388,175.6,387,175.7L387,175.7z
		 M387.1,179L387.1,179L387.1,179L387.1,179z M407.4,180.2L407.4,180.2l0.1-0.1l0.1,0L407.4,180.2L407.4,180.2L407.4,180.2z
		 M407.3,180.2L407.3,180.2L407.3,180.2L407.3,180.2L407.3,180.2z M397.6,181.4L397.6,181.4l0.2-0.1L397.6,181.4L397.6,181.4z
		 M397.9,181.3L397.9,181.3L397.9,181.3L397.9,181.3L397.9,181.3L397.9,181.3z M395.6,177.1c0.7-0.2,5.3-0.2,5.3-0.2
		c0,0,1,0.3,0.4,1.1l-3.6,3.4l-0.9,0c-0.6-0.6-0.7-1.8-1-2.6C395.6,178.2,395.1,177.6,395.6,177.1"/>
	<path id="XMLID_76_" class="st0" d="M89.8,179.3l0.8-0.4c0.4-0.3,0.7-0.4,1.5-0.3c1.9,0.2,3.6,1.4,5.2,2.3c2.8,1.6,5.7,3.1,8.5,4.8
		h0c0.7,0.5,2.7,1.8,3,2.1c0.4,0.6,0.2,1.4,1,1.5l0.8-0.4h0h0l7.4-13.3c0,0-5.3-7.7-6.8-5.1c-0.5,0.8,0.8,2.4,1.1,3.1
		c0.4,1.1,0.5,2.4,0.4,3.6c0,1.1-0.2,3.5-1,4.5c-0.8,0-7.4-3.8-7.7-3.9c-0.1-0.1,0.6-2.4,2.2-2.7c0.7-0.2,2.1-0.2,2.4-0.6
		c0.9-1.2-5-3.6-6.5-4c-1.3-0.3-0.4,2.7-0.3,3.1c0.2,0.4,0.5,1.7-0.4,3c-1.7-0.8-6.1-3.1-6.7-3.3c-0.5-0.3,1.5-4.4,2.6-4.6
		c1.2-0.3,3.3-0.7,4-1.1c1-0.6-0.2-1.3-0.8-1.4c-1.1-0.2-2.2-0.3-3.3-0.5c-0.7-0.2-1.3,0.2-1.3,0.2c-1.2,0.8-4.3,7.9-5.2,9.8
		C90.3,176.2,88.2,179.4,89.8,179.3L89.8,179.3z M101.8,176.4l-0.3,0.2L101.8,176.4z M91,178.5l-0.6,0.3L91,178.5"/>
	<path id="XMLID_79_" class="st0" d="M331.1,101.4c-1.7,2.9-7.2,12-8.5,13c-2.4,0.3-2.2,0.9-2.2,1c-0.9,0.9,2,1.7,2.5,1.9
		c2.5,1.2,9.3,5.4,10.3,6.1c0.6,0.3,1.1,0.9,1.8,1.1c0.1,0,1.4-0.1,5.3-4.7c0.5-0.5,1.6-1.9,0.1-1.7c-1.1,0.1-2.1,1-3.2,1.2
		c-2.1,0.5-4.7,0-6.5-0.9c-1.7-0.9-1.2-1.7-0.5-2.9c1.2-2.1,2.4-4.1,3.7-6.2c0.7,0.2,1.2,0.6,1.8,1.2c1,1.1,1.3,2,1.5,3.4
		c0.1,0.9,0.8,1.4,1.5,0.7c0.9-1,1.3-2.7,1.9-3.9c0.3-0.7,1.5-3,0.7-3.2c-0.6-0.1-1.7,0.4-2.3,0.6l-1.4-0.2c-1-0.2-1.7-0.2-2.3-1.1
		c1.2-1.8,2.3-3.7,3.7-5.4c1.3-0.1,2.8,1.9,3.3,2.7c0.7,1.1,1.2,2.3,1.6,3.6c0.4,1.1,1.5,0.9,1.5,0.9c0.4-0.1,0.7-0.4,0.9-1
		c0.3-1,1.3-3.6,1.3-4.1c-0.1-0.5-1.6-1.2-2.1-1.5c-3.2-2.1-6.4-4.2-9.7-6.2c-0.5-0.3-3.4-1.8-3.3,0.1c0,0.6,0.2,1.2,0.2,1.8
		C332.5,99,331.8,100.3,331.1,101.4z M322.5,114.6l-0.4,0.2L322.5,114.6L322.5,114.6L322.5,114.6z"/>
	<path id="XMLID_83_" class="st0" d="M401.2,240.3c0,1.3-0.2,2.6-0.1,3.9c0,0.6,0.1,0.5,0.3,1.1l0.6,0.2c0.1,0,4.9,0.7,5.9,0.9
		c1.4,0.3,1.8-0.7,0.9-1.1c-3.4-1.5-5.4-5.4-5.6-7.4c-0.3-1.9,0.7-1.9,2.1-2.1c2.4-0.2,4.8-0.4,7.2-0.6c0.2,0.7,0.2,1.3,0,2.1
		c-0.4,1.4-0.9,1.9-2,2.8c-0.7,0.6-0.6,1.5,0.5,1.2c1.4-0.3,4.2-1.2,5.5-1.3c1.3-0.1,0.6-0.8,0.6-0.9c-2.4-2.1-1.9-3.1-2.1-3.4
		c-0.4-1,0-0.9,1-0.9c2.2-0.1,4.3-0.4,6.5-0.4c0.8,1,0.2,4.8-0.2,5.7c-0.5,1.2-1.8,1.8-2.4,2.9c0,0-1.2,1.5,0.9,1.3l4.1-1.2
		c0.4-0.3,0-1.1,0-1.6c-0.1-3.8-0.4-7.4-0.6-11.2c-0.1-1.9-0.3-2.7-0.4-2.7c-0.3-0.3-0.7-0.4-1.3,0c-0.5,0.3-0.9,0.9-1.4,1.1
		c-1.2,0.6-6.6,0.2-7.6,0.9c-1.4,0.9-9.6,1.4-11.1,1c-0.5-0.3-0.4-0.6-1.3-1l0,0c-1.3-0.2-1,2.2-1,2.8
		C400.7,235,401,237.6,401.2,240.3L401.2,240.3z M402.4,230.5l-0.1,0l-0.3-0.3L402.4,230.5L402.4,230.5z M401.2,229.6L401.2,229.6
		L401.2,229.6L401.2,229.6"/>
	<path id="XMLID_87_" class="st0" d="M81.3,203.9c0.4-0.4,0.3-0.4,0.5-0.6c0.6-0.2,1.3-0.1,1.8-0.1c1.1,0,18.8-0.6,19.4,0.2
		c1.2,1.9,2,0.5,2,0.5c0.8-1.2,1.1-3,1.6-4.3c0.1-0.4,1.2-2.5,0.7-2.8c-0.4-0.2-1.2,0-1.7,0.1c-1,0.1-1.7-0.2-2.5-0.7
		c-4.4-3.1-9.2-6.3-13.1-10.2c-0.4-0.4-0.8-0.8-1-1.3c-0.3-0.6-0.7-2.4-1.4-2c-1.5,0.8-2.8,5.6-2.8,6.5c0,0.7,1.3,0,1.3,0
		c1.9-0.6,5.3,2.5,6.7,3.5c0.7,0.5,5.7,3.6,4.8,4.9c-0.7,0.2-10-0.1-11-0.2c-1.3-0.1-2.1-0.5-3.1-1.1c-0.7-0.4-1,0.2-1.1,0.3v0h0
		c-0.3,0.2-1.8,6-2.1,6.9C80.1,203.7,80.6,204.4,81.3,203.9L81.3,203.9z M86.4,189l-0.2,0.1L86.4,189z M81.6,203.4L81.6,203.4
		l-0.1,0.2L81.6,203.4"/>
	<path id="XMLID_88_" class="st0" d="M276.1,115.9c0,0,0.7-0.6,0.2-0.9c-2.6-1.5-4.6-3.9-6.7-6c-1.1-1.1-2.1-2.1-3.2-3.2l-1.5-1.2
		c0,0.2,2.1,3,3,4.2C270.3,111.6,273,114,276.1,115.9"/>
	<path id="XMLID_91_" class="st0" d="M263.1,122.8c0.7,0.8,2.3,1.6,3.4,1l1.1-0.8c-1.5,0.5-2.6-0.5-3.6-1.5c-1-1-1.9-1.9-3.1-2.7
		c-0.8-0.5-3.1-1.5-3.9-0.4v0c0.8,0.7,1.5,2.3,1.5,3.4c0.1,1.3,0,2.9,1.5,3.2c0.9,0.2,2.8-0.6,2.9-0.7l0,0c-1.9,0.7-3.2-0.3-3-2.2
		c0.2-1.8-1.1-2.7-1.2-2.8C260.4,120.2,260.6,119.8,263.1,122.8L263.1,122.8z M267.1,123.3L267.1,123.3L267.1,123.3L267.1,123.3"/>
	<path id="XMLID_94_" class="st0" d="M296.6,210.5L296.6,210.5c1.9,1.9,3.9,3.6,6.3,4.8c3,1.5,6.6,1.6,9.6,0.1
		c4.8-2.4,5.9-7.8,6.5-10.5l-0.9,0.5c-0.7,2.3-3.2,8.3-10.5,8.6C300.7,214.3,296.7,210.4,296.6,210.5z M312.5,213L312.5,213
		L312.5,213L312.5,213"/>
	<path id="XMLID_95_" class="st0" d="M288.5,205.3c0.1,2.8,2.4,4.9,4.5,6.5l0,0l0.6-0.3c0,0-4-3.3-4-6.9L288.5,205.3"/>
	<path id="XMLID_96_" class="st0" d="M318.4,237.2c-1.9-2.1-8.3-3.3-8.6-3.4c2.5,0.9,6.1,2,7.7,4.2c0,0,0.1,4.3,0.2,7.2
		c0.2,3.1-0.8,6.6-3.5,8.6l1.1-0.6c3.8-2.9,3.8-8.9,3.4-13.2c-0.3-2.7,1.6-4.8,4-6.3C321.2,234.7,319.5,235.8,318.4,237.2"/>
	<path id="XMLID_97_" class="st0" d="M291.6,232.7c2.5-0.9,5.3-1.4,7.9-1.2l1.1-0.6c-2.7-0.2-5.5,0.3-7.9,1.2L291.6,232.7"/>
	<path id="XMLID_98_" class="st1" d="M334.6,284.4l-1.5,0.8c-0.2,0.2,0,0.3,0,1.4c-0.1,1.7-1.7,2.9-1.8,3
		C334.7,289.6,334.8,285.7,334.6,284.4"/>
	<path id="XMLID_99_" class="st1" d="M338.4,271.5l-1.1,0.6c0.3,2.5,0,5.1-1.2,7.3c-0.3,0.7-0.8,1.3-1.4,1.9l-0.6,0.5
		c-0.1,0.1-0.3,0.2-0.3,0.2l0.1,0c-0.1,0.1-0.1,0.1-0.1,0.1c0,0,0.7-0.4,0.8-0.4C338.1,279.5,338.8,275.1,338.4,271.5"/>
	<path id="XMLID_100_" class="st0" d="M327.9,256.8l-1.1,0.6c5.9,0.9,10.6,5.5,11.6,11.2C338.3,268.5,337.2,256.7,327.9,256.8"/>
	<path id="XMLID_101_" class="st0" d="M333.7,275.6l0.4-1.5c-2-9.9-16.6-10.3-16.9-10.3C324.8,265.6,330.3,268.3,333.7,275.6"/>
	<path id="XMLID_102_" class="st0" d="M322,256.7c-4-0.1-7.1-0.3-12,0.9c-0.6,0.1-1.2,0.2-1.7,0.5c-0.6,0.2-2.1-0.2-2.7,0
		c-1.3,0.3-1.9,1.4-2.2,1.5c0.6-0.3,2.7-1.4,4.7-0.8c0.6,0.2,3.8-1.6,12.8-1.5L322,256.7"/>
	<path id="XMLID_103_" class="st0" d="M249,279.2c-5.1-5.7-10.3-11.5-15.4-17.2l-0.4,0.2l-0.2,0.1c4.6,6.1,9.8,11.9,14.8,17.6
		l0.1-0.1h0l0,0l0.1-0.1l0.4-0.2l0.1-0.1v0l0.4-0.3L249,279.2l-0.1,0.1v0L249,279.2"/>
	<path id="XMLID_104_" class="st0" d="M269.2,271.3c-4.4,0.1-8.4,0-12.9,0.2c-1.1,0-4.2,0.5-4.3,0c-0.5-1.1-1.1-2.1-1.8-3.1
		c-2.8-4.3-6-8.4-9.3-12.3c-2-2.5-5.9-5.3-9.3-3.5c-1,0.5-1.4,1.5-2.1,2.4c0.2-0.3,2.8-1.7,3.7-2c2.6-0.6,5.4,2.3,6.9,4.1
		c3.2,4,6.4,8,9.1,12.2c0.6,0.9,1.2,1.9,1.6,2.9c0.2,0.5,0.1,0.6,0.6,0.6c1.1-0.1,3.2,0.5,4.3,0.5c4.5-0.1,8.4-0.1,12.9-0.2
		c7.2-0.2,15.3,0.1,21.9-1l0.5-0.9C283.8,271.3,276.6,271.1,269.2,271.3"/>
	<path id="XMLID_105_" class="st0" d="M289,275c-3.7,0.1-7.3,0.1-11,0.1l-1.1,0.6c3.7-0.1,7.4-0.1,11-0.2L289,275"/>
	<path id="XMLID_106_" class="st0" d="M269.6,277.2c-4.1,0.1-8.3,0.1-12.4,0.2l-1.1,0.6c4.2-0.1,8.3-0.1,12.4-0.2L269.6,277.2"/>
	<path id="XMLID_107_" class="st0" d="M251.1,280.1c2.8-0.1,5.5-0.1,8.2-0.1l1.1-0.6c-2.7,0-5.5,0.1-8.2,0.1L251.1,280.1"/>
	<path id="XMLID_108_" class="st0" d="M253.2,281.3l-1.1,0.6c14.1,0.4,28.3,0.8,42.5,1.1l1.1-0.6C281.5,282,267.3,281.6,253.2,281.3
		"/>
	<path id="XMLID_109_" class="st0" d="M284.8,281c3,0,5.9-0.1,8.9-0.1l1.1-0.6c-3,0-6,0.1-9,0.1L284.8,281"/>
	<path id="XMLID_110_" class="st0" d="M240.9,326.1l1.1-0.6c-5.6,2.1-12.1,0.6-17.4-1.8c-6.5-3-12.5-7.4-17.6-12.3
		c-5.2-5.1-13.1-18.4-13.1-18.4c2.4,6.8,6.6,13.7,11.7,18.7c5.1,5.1,11.2,9.4,17.8,12.5C228.7,326.8,235.3,328.2,240.9,326.1"/>
	<path id="XMLID_111_" class="st0" d="M278.2,348.9l-1.9,0.8c0.4,0.3,1-0.1,1.5,1.2c0.5,1.2,0.2,3.7-0.1,4
		C277.7,354.8,279.9,350.2,278.2,348.9"/>
	<path id="XMLID_112_" class="st0" d="M266.7,384c0,0,8.1-2.2,3.1-7.4l-1.7,2.1c-0.6,0.5,0.3,0.9,0.8,0.5c0.1,0,1,1.2,0.4,2.4
		C268.7,382.8,266.7,384,266.7,384"/>
	<path id="XMLID_113_" class="st0" d="M247.4,341.5c-0.8-0.7-1.8-0.2-2.8-0.3c-17-1.3-29.5-10.2-29.6-10.2
		c5.9,6.5,14.3,10.7,22.9,12.4C245.9,345,248.1,342.1,247.4,341.5"/>
	<path id="XMLID_114_" class="st0" d="M221.1,326.3c2.7,1.7,8.6,3.3,11.3,4c-5.4-1.6-17.3-8.3-17.3-8.4
		C217,323.5,219,324.9,221.1,326.3"/>
	<path id="XMLID_115_" class="st0" d="M264.7,342.9c-1.3,5.9-8.1,8.9-8.2,8.9C263.2,351.8,264.9,346.3,264.7,342.9"/>
	<path id="XMLID_116_" class="st0" d="M226.4,353.5c0,0,0.9-5.1-5.1-11.8c-9.4-10.6-18.9-27.8-18.8-27.7c1.8,4.9,6.1,13,10.1,18.9
		c2.3,3.3,5,6.1,7.5,9.3c2.1,2.7,4.8,6,5,9.6c-1.2-1.4-8.9-11-11-14.3c-2.5-4.1-4.9-8.2-7-12.5c0,0,3.4,8.9,5.7,12.9
		C219.9,349.5,226,353.2,226.4,353.5"/>
	<path id="XMLID_117_" class="st0" d="M201.2,336.3c0.6,3.6,0.9,7.2,1.4,10.8l0.4-0.2l0.1-0.1c0.3-0.3,0.1-2,0.1-2.4
		c0-1.2-0.1-2.4-0.2-3.6c-0.2-2.4-0.5-4.7-0.9-7.1c-0.8-4.4-2-9-4.2-12.9l-0.1,0.1c-0.5,0.3-1,0.6-1.5,0.9l0.2-0.1l-0.2,0.1
		c1.5,1.8,2.2,4,2.9,6.2C200.1,330.6,200.7,333.5,201.2,336.3"/>
	<path id="XMLID_118_" class="st0" d="M223,354.6c-3.7-1.6-7.6-2.6-11.6-2.7c-3-0.1-5.8,1.1-5.8,1.1c-0.1,0,9.9-0.5,15.9,2.6
		L223,354.6"/>
	<path id="XMLID_119_" class="st0" d="M239.1,352.1l1.1-0.6c-2.4,0.9-12.5-5.4-12.5-5.4C229.1,347.2,236.6,353,239.1,352.1"/>
	<path id="XMLID_120_" class="st0" d="M227,282.4c0.5,0.2,2.1,1.2,2.1,1.2l0.8-0.2c0,0-3.6-3.9-6.5-3.8c-1,0.1-5,2-5.1,2
		C221.2,280.9,224.3,281,227,282.4z"/>
	<path id="XMLID_121_" class="st0" d="M307.2,275c0.8-0.6-7.6-9.5-13.2-11.8l-0.4,0.2c9.3,5.6,13.1,11.8,13,11.8L307.2,275"/>
	<path id="XMLID_122_" class="st0" d="M317.2,287c1.1-3.4-0.4-7.4-2.9-10.1c0-0.1,3.4,5.9,1.9,10.8L317.2,287"/>
	<path id="XMLID_123_" class="st0" d="M316.1,273.4c-0.5-0.7-1.9-1.8-2.9-1.9l-0.5,0.3c0.1,0.2,3.1,3.5,3.4,4.6
		C316.2,276.9,317,275,316.1,273.4"/>
	<path id="XMLID_124_" class="st0" d="M201.9,126.5c-9.3,3.3-16.6,6.6-22.1,9.3c-10.7,5.1-24.8,16.1-30.8,20.5
		c8.4-6,38.8-26.4,70.3-33.5l0.6-0.2c6.2-1.7,6.9-3.2,6.4-3.9c-0.1,0.1-11.1,3.5-12.4,3.9C209.9,123.8,205.9,125.1,201.9,126.5"/>
	<polyline id="XMLID_125_" class="st1" points="217.1,124.9 216.9,125.1 217.1,124.9 	"/>
	<path id="XMLID_128_" class="st0" d="M152.2,150.1L152.2,150.1L152.2,150.1L152.2,150.1c28.1-20.3,61.4-33.5,71.6-36.1
		c-13.9,3.4-27.6,9-40.4,15.6C177.6,132.6,152.8,147.4,152.2,150.1z M212.9,117.3c-2.8,1-5.6,2-8.4,3c-3.1,1.2-6,2.4-9,3.7
		C201.1,121.5,207,119.3,212.9,117.3"/>
	<polyline id="XMLID_129_" class="st0" points="168.6,137.9 169,137.7 169.2,137.6 168.6,137.9 	"/>
	<polyline id="XMLID_130_" class="st1" points="211.7,146.2 211.5,146.4 211.7,146.2 	"/>
	<path id="XMLID_131_" class="st0" d="M255.8,217.5c-10.2-1.6-28.8-0.7-28.9-0.6C236,217.1,255.5,217.5,255.8,217.5"/>
	<polyline id="XMLID_132_" class="st0" points="258,212.5 258.4,212.5 258,212.5 	"/>
	<path id="XMLID_133_" class="st1" d="M178.2,213.2c-2.5,0-5.1,0.2-7.5,0.7l-1.1,0.6l0,0l-0.2,0.1l-0.1,0.1l-0.2,0.1l0.1,0l0,0l0,0
		c1-0.2,2-0.3,2.9-0.4l14.7,0.1c0.8,0,1.6,0.1,2.4,0.2c0.8,0.1,2.1,0.4,3,0.4c0.3,0,0.7,0,0.9-0.1l0.9-0.6l0.3-0.2l0.2-0.2l-0.2,0.1
		l0.2-0.1C189.1,213.6,183.7,213.2,178.2,213.2"/>
	<path id="XMLID_134_" class="st1" d="M367.3,292.8l-1.1,0.7c-0.3,3.7-3.1,7.1-5.8,9.5l1.1-0.6C364.2,300.1,367,296.6,367.3,292.8"
		/>
	<polyline id="XMLID_135_" class="st0" points="234.2,387.1 234.8,386.7 234.9,386.7 234.2,387.1 	"/>
	<path id="XMLID_136_" class="st1" d="M389.1,269c-0.8,0.8,1.6,2.4,3.1,2.7c0.1,0-2.6-1.8-2.3-2.6L389.1,269"/>
	<polyline id="XMLID_137_" class="st1" points="347.5,143.6 347.4,143.6 347.5,143.6 	"/>
	<path id="XMLID_138_" class="st0" d="M292.7,116c0.2-0.8-1.4-0.7-1.7-1c-0.4-0.5,1.8-0.4,1.3-0.8c-0.9-0.9-2.3-0.7-3.3-0.6
		c-0.6,0-1,0.1-1.3,0c-7-2.7-7.9-3.6-10.4-5.7c-0.1-0.8-0.1-1.5-0.4-2.4c-1.3-2.9-5.7-3.9-5.7-3.9c1.1,1,2.3,2,3.2,3.2
		c1,1.2,1.2,2.5,1.5,3.9c0.7,2.1,4.1,5.3,4,5.2c-0.7-1.1-1.2-2.2-1.7-3.4c-0.2-0.5-0.4-1-0.6-1.5c3.6,3.3,7.7,7.3,12.3,8.2
		c0.1,0.1,0.1-0.2,0.2-0.5c0.1-0.4,0.3-0.8,0.9-0.4l5.6,3C296.7,117.7,292.3,117.5,292.7,116"/>
	<path id="XMLID_141_" class="st0" d="M300.7,124.3l0.7-0.6c0.8-1.3,1.1-2.8,1.1-4.3c0.1-3.1-1.2-6.1-2.8-8.8
		c-1.5-2.5-8-10.4-8.3-10.4l0,0c-0.2,0.8,2,2.6,2.5,3.1c1.8,2.5,3.3,5.1,4.4,7.9c1,2.5,1.8,5.3,1.9,8.1c-1.7-3-4.1-5.6-6.3-8
		c-0.2-0.2-1-0.2-0.6,0.4c2.9,3.8,5,6.8,6.6,10.8v0l-0.2,1L300.7,124.3L300.7,124.3z M299.9,123.4L299.9,123.4L299.9,123.4
		L299.9,123.4"/>
	<path id="XMLID_144_" class="st0" d="M289.7,124.2c0.5-0.2,0.3-1.8,0-1.8l-0.1-0.1c-3-1-6-2.1-8.5-4.1c-0.6-0.5-1.2-1.1-1.7-1.6
		l-0.7-0.8l-0.8,0.1l0,0.1v0c2.3,3.1,5.1,6,8.7,7.6C287.4,123.8,289,124.6,289.7,124.2L289.7,124.2z M289.5,122.3L289.5,122.3
		L289.5,122.3"/>
	<path id="XMLID_145_" class="st0" d="M282.2,123.7l2.6-0.1c-2.5-1.2-6.8-3.8-8.3-5.7C276.5,117.8,276.9,120.2,282.2,123.7"/>
	<path id="XMLID_146_" class="st0" d="M291.4,121.7L291.4,121.7c0.6,0.1,1.1,0.2,1.7,0.2c0.6,0.1,1.2,0.5,1.8,0.6
		c0.5,0.1,0.5-1,0.5-1.1c-0.2-0.2-2.1-1.6-3.7-1.3c0,0-4.9-0.9-6.6-2.7l-0.3,0c-0.2,0.5,0.2,1.1,0.5,1.3
		C287,120.4,289.4,121.1,291.4,121.7L291.4,121.7z"/>
	<path id="XMLID_147_" class="st1" d="M277.8,101.8l-1.1,0.6c0.9,0.6,2.1,0.8,3.2,0.8c0.4,0,0.7,0,1-0.1l1.1-0.6
		c-0.3,0.1-0.7,0.1-1,0.1C279.9,102.6,278.7,102.3,277.8,101.8"/>
	<path id="XMLID_148_" class="st0" d="M280.1,103.9l-1.1,0.6c2.3,0.5,4.9,0.7,6.6-1C285.3,103.8,281.7,104.3,280.1,103.9"/>
	<path id="XMLID_149_" class="st0" d="M285.9,107.2c-0.1,0-0.9,1.5-1.8,1.2l-0.6,1.2c1.5,0.5,2.5-0.5,3.5-2.4L285.9,107.2"/>
	<path id="XMLID_150_" class="st0" d="M283.9,110.9l0.5,0.3c1.5,0.1,3.1-0.9,4.3,0.1c0.1,0.1,0.8,0.1,0.5-0.8c-2-2.4-2.1-1-4.2-0.2
		L283.9,110.9"/>
	<path id="XMLID_151_" class="st0" d="M299.5,140.2c1.3,0.1,2.3,1.3,3.4,2.2l0.4-0.8c-0.4-1-0.8-3-2.1-3.1
		C300.1,138.3,299.5,140.2,299.5,140.2"/>
	<path id="XMLID_152_" class="st0" d="M302.3,127.6c0,1.9-0.3,3.9-1.4,5.5l-2.1,1.6c3.5-0.7,5-4.6,5-7.6
		C303.8,127.3,302.3,126.3,302.3,127.6"/>
	<path id="XMLID_153_" class="st0" d="M305,124.4c0.9-2,2-4.8,2.2-6.9l-1.1,0.6C302.8,126.1,305,124.4,305,124.4"/>
	<path id="XMLID_154_" class="st0" d="M246.5,367.9l2.2-1.3c-1.7-0.1-5.6,1.2-7.2,2.9C242.1,369,245.5,367.8,246.5,367.9"/>
	<path id="XMLID_155_" class="st0" d="M254,365.7c1,0,2.1-0.2,3-0.6c0.8-0.3,4.3-2.7,4.7-3.4l-2.1,1c-0.5,0.9-2.9,1.7-3.4,1.7
		L254,365.7"/>
	<path id="XMLID_156_" class="st0" d="M259.4,366.3c0.8,0.1,1.6,0,2.4-0.2c0.6-0.2,3-1.6,3.5-2.1c-0.2,0.3-2.7,1.2-3.7,1.1
		L259.4,366.3"/>
	<path id="XMLID_157_" class="st0" d="M132.1,188.1c17.3-12.1,35.9-22.7,55.9-30c4.3-1.5,8.7-3.3,12.9-5.2
		c2.6-1.2,11.4-6.2,12.8-7.8c-0.5,0.5-15.6,8.4-27.9,12.8c-14,5-26.9,13-39.5,20.7c-6.3,3.8-12.5,7.8-18.5,12
		C129.1,189.7,130.8,189.1,132.1,188.1"/>
	<path id="XMLID_158_" class="st0" d="M210,143.9c-20.6,7.1-40.4,17.2-58.9,28.4c-7.1,4.3-14,9-20.6,14.1c1.3-1,3.1-1.5,4.4-2.5
		c13.1-10.3,27.5-18.6,42.5-25.7c8.7-4.1,17.6-8,26.7-11.3c0.5-0.2,1-0.4,1.5-0.5C207.2,146,208.4,144.5,210,143.9"/>
	<path id="XMLID_159_" class="st0" d="M197.3,172c-0.3,0.3-4.2,2.4-5.5,3.1c-0.9,0.5-6.5,3.1-10.2,4.3c-5.6,1.9-10.8,4.4-16,7.2
		c-8.8,4.4-17.3,9.5-25.6,14.6c-4.1,2.5-8.1,5.1-12,7.8c-0.3,0.2,2.6-1.4,4.4-2.4c1.8-1.1,3.7-2,5.4-3.2
		c2.5-1.8,17.5-10.8,19.3-11.6c5-2.5,10-4.5,15.3-6.3C182.1,182.1,196.6,172.7,197.3,172"/>
	<path id="XMLID_160_" class="st0" d="M187.2,172c-7.1,2.5-13.9,5.5-20.7,8.7c-7.5,3.6-14.9,7.7-22,11.9c-7.9,4.6-15.7,9.4-22.9,15
		c0.4-0.3,9.3-5.1,10.9-6.4c2.8-2.2,5.6-4.3,8.6-6.2c1.4-1,13.2-7.3,18.6-9.8c5.4-2.5,10.9-4.8,16.6-6.8
		C178.2,177.8,186.7,172.2,187.2,172"/>
	<path id="XMLID_164_" class="st0" d="M124.9,336.2l0-0.2c-0.5-2.7-4.1-7.6-4.2-7.8l-2.1-3.2l-1.6,1.1c-1,0.6-2.5,0.7-3.6,1
		c-2.7,0.6-12.4,1.4-14.6,1.5c-1.3,0.1-2.4,0.2-3.7-0.2c-0.7-0.2-1.1-1.1-1.8-0.9c-0.5,0.1-0.4,0.5-0.2,0.8c0,0,2.2,2.3,2.7,5.1
		c0.1,0.2,3.5-2.4,6.3-1c0.5,1,3.5,6.2,3.3,7.8c-0.6,1.3-3.4,3.4-3.4,3.5l0.1,0.5l0-0.1l2.4,4.2c0.1,0.2,1,1.5,1.3-0.3
		c0.3-1.3,1.8-4.5,2.8-5.5c0.9-0.9,1.9-1.8,2.8-2.7l1.1,1.1c0.8,1.1,1.8,1.8,0.9,4c-1,2.3-3.9,6-4.4,7.7c-0.3,0.9,1.8,3.9,1.8,3.9
		c0.6,0.6,0.8,0,1.1-0.7c1.6-3.8,4.8-7.8,4.6-10l0.2-2.4c1.3,0.3,4.2,0.1,5.1-0.3C124.4,342,125.4,339,124.9,336.2L124.9,336.2z
		 M105.2,331.9l1.9-0.4c1.8-0.2,5.5-0.7,5.4-0.2c-0.4,1.2-2.2,3.4-2.4,3.6c-0.9,0.6-1.5,1.7-2.4,2.2L105.2,331.9z M117.7,339.5
		c-1.7,0.8-4.1-0.1-5-1.5c1.5-1.4,5.9-8.1,6.4-7.3c0.5,0.7,1.9,2.2,2,3.5C121,336.1,119.2,338.8,117.7,339.5"/>
	<path id="XMLID_165_" class="st0" d="M130.2,353.2l2.1,1.8c0,0,1.6-1.3,2.3-2.5c0.2-0.6,1.8-3.8-1.8-5.8c0,0-3.6-3.8-9.5,0.8
		c0,0-10.3,6.6-8.6,13.7c0,0,2.4,6.8,8.7,6c0,0,2.4,0.1,3.5-1.9c0,0,0.3-1.1,1.4,0.5c0,0,1.3,0.9,0,2.1c0,0-1.6,2.6-3.8,2.8
		c0,0-1.7,0-0.4,1.7l2.8,3.1c0,0,1.6,1.4,2-0.4c0,0,4.4-6,11.8-11.8c0,0,2.3-2.9,2.5-0.6c0,0,0.4,3.9,1.9,2c0,0,1-1.7,2-2.2
		c0,0,1.7-0.1-0.1-1.7l-7.7-7.6c0,0-0.8-2-2.4-0.1l-1.2,1.3c0,0-1.6,1.4,0.7,1.7c0,0,2,0.2,2.7,2.2l-7.1,6.8c0,0-0.7,1.4-1.7-0.1
		l-3.7-4.6c0,0-1.4-1.9-2,0.5c0,0-0.3,2.8-3.9,3.5c0,0-1.9,0.3-3-2.2c0,0-0.6-1.3,2.3-4.3l8.4-8c0,0,1.5-1.8,3.2-0.7
		C131.2,349.2,132.7,350.6,130.2,353.2"/>
	<path id="XMLID_166_" class="st0" d="M133.9,378.7c0,0-1.9,1.6-0.4,2.8l1.9,1.9c0,0,1.2,1.3,1.8-0.5c0,0,0.2-1.2,1.6-2.8l5.9-5.8
		c0,0,0.6-1,0.7,0.3l-2.9,12c0,0-0.8,3.3,1.7,2.5l11.8-7.8c0,0,1.4-1.3,0.9,0.9l-5,11.7c0,0-0.8,1.2,0.5,2.1l1.6,1.2
		c0,0,1.7,1.2,2-0.4l7.5-19.7c0,0,1.3-2.8-1.2-3.9c0,0-1.3-0.5-3.5,1.1l-8.3,5.7c0,0-1.3,0.3-1.2-1.2c0,0,1.7-5.6,2-6.9
		c0,0,1.8-5.7,0.4-6.8c0,0-1.5-2.1-3-0.5L133.9,378.7"/>
	<path id="XMLID_167_" class="st0" d="M169.1,378.5c0,0-2-1.8-2.6,0.6l-5.7,19.9c0,0-1.3,1.8,0.6,2.6c0,0,1.4,0.5,1.4,1.1
		c0,0,1.9,0.7,2.9-0.6l15.3-15.2c0,0,1.7-1.3-0.4-2.2l-1.9-0.9c0,0-1.9-1.2-2.9,1.1c0,0-0.1,1.6-2.7,3.8l-4.6,4c0,0-1,0.7-0.7-0.6
		l3-9.6C170.7,382.4,172.4,379.9,169.1,378.5"/>
	<path id="XMLID_168_" class="st0" d="M185.5,387c0,0-1.8-1.4-3.1,1l-9,17.4c0,0-2.3,2.1-0.4,2.6l1.8,0.9c0,0,1.3,1,2.2-0.6
		l8.8-17.6c0,0,1.8-2.4,0.4-3.3C184.8,386.5,185.5,387,185.5,387"/>
	<path id="XMLID_169_" class="st0" d="M217.4,407.4c0,0,2-3.4-1-3.2c0,0-3.4-1-3.9,2.9c0,0,0.1,1.8,0.6,3l1.1,10.6
		c0,0-0.1,1.5,1.3,1.7c0,0,1.5,0.6,2.8-1.4l10.7-16.4c0,0,1.7-1.4-0.7-2.1c0,0-2.4-1.2-3.1,0.1l-7.4,10.5
		C217.9,413.1,216.9,414.9,217.4,407.4"/>
	<path id="XMLID_170_" class="st0" d="M240.4,407.9c0,0-0.5,1.9-2,0.5c0,0-2-2.2-3.3,0.2c0,0-1.4,0.8,3.9,5.7c0,0,5,4.9-1.1,10.4
		c0,0-3.7,3.8-12.2-1.3c0,0-2.1-0.6-1.2-2.6l1.3-2c0,0,1.1-2.2,2.8,0.2c0,0,0.6,3.3,4.9,3.2c0,0,4.9-0.8-0.7-7.8
		c0,0-5.1-7.7,1.5-9.7c0,0,3.6-0.7,5.8,0.9C240.2,405.6,241.5,406,240.4,407.9"/>
	<path id="XMLID_173_" class="st0" d="M213.7,397.8c0,0-1.4-0.1-4.6-1.4c0,0-3.3-2.1-4.8-0.3c0,0-2.3,3.4-0.1,3.4
		c0,0,1.8-0.9,2.5-0.6c0,0,0.8-0.5,0.3,1.7l-5.2,13.9c0,0-0.5,2.5-3.1,0.2c0,0-1.1-1-1.3-4.5c0,0,0-3.4-1.1-4.9c0,0,2.4-0.5,4.1-2.9
		c0,0,2.1-3,1-6.7c0,0-0.9-2.3-3.5-3.3l-6-2.6c0,0-2.8-1.3-2.2,1.3c0,0,0.1,2-0.9,3.8l-7.1,14.4c0,0-1.4,2,0.6,2.6l2.7,1.3
		c0,0,1.5,1.2,1.9-0.6c0,0,0.6-3.3,1.7-5.3l1.6-3.5c0,0,3.4,0.6,3.8,6.3c0,0-0.6,7.2,4.5,8.3c0,0,5.7,2.1,7.7-2.8l5-13.5
		c0,0-0.1-1.9,1.2-1.6c0,0,0.5-0.3,1.4,0.5c0,0,1.9,0.9,1.9-1.1C215.4,400,215.9,398.1,213.7,397.8L213.7,397.8z M192.2,402.2
		c-2.1,0.1-1-1.7-1-1.7l2.9-6c0.4-1.7,1.4-0.7,1.4-0.7l1.7,1.2c1.6,1.8-1,6.1-1,6.1C195.5,402.9,192.2,402.2,192.2,402.2"/>
	<path id="XMLID_176_" class="st0" d="M262,423.8c0,0-2.6,0.5-5.1-5.2c0,0-0.8-1.9-2.4-3.1c0,0,3.6-0.9,3.4-6.1c0,0,0.5-4-4.7-4.9
		l-6.5-0.3l-2,0.6l0.3,0.5l-0.8,16.7c0,0,0.2,1.5-0.3,2.2c0,0-1.6,2.1,0.9,2.2l2.6,0.1c0,0,2.2,0.5,2-1.6l-0.1-7.9
		c0,0,2.3-2.1,4.2,3.3c0,0,3.2,8.2,9.1,5.2C262.8,425.4,264.6,424.3,262,423.8L262,423.8z M253.4,410.2c0.1,2.5-1.9,3.3-1.9,3.3
		c-2.1,1.2-1.9-0.8-1.9-0.8l-0.1-5.6c-0.1-1.4,2.3-0.9,2.3-0.9C254,406.3,253.4,410.2,253.4,410.2"/>
	<path id="XMLID_179_" class="st0" d="M266.8,406.2c0,0-8.4-0.8-7.7,8.9c0.8,9.8,10,7.8,10,7.8s5-1.7,4.7-9.4
		C273.6,407,266.8,406.2,266.8,406.2z M266.4,420.2c0,0-2.8,0.9-3.1-6c-0.3-6.7,3.1-5.7,3.1-5.7s3.5,0.5,3.5,5.2
		C269.8,420.9,266.4,420.2,266.4,420.2"/>
	<path id="XMLID_183_" class="st0" d="M292.1,413.8c0,0-0.8-3.3-4.1-4.2c0,0-1.1-0.2-0.4-1.3c0,0,3.4-6.7-3.3-9.2
		c0,0-7.2,1.4-8.5,0.3c0,0-0.5,0.9-1.4,1c0,0-1.9,0.3-0.3,2.6c0,0,0.9,0.3,2,9.1c0,0,1.1,6.9,0.9,9.1c0,0-1.4,3.3,1.1,2.9
		c0,0,0.8-0.4,4.5-0.8c0,0,5.4-1.3,6.2-1.7C288.9,421.6,293.3,420.5,292.1,413.8z M279.9,408.7l-0.5-3.6c-0.9-4.1,1.6-3.8,1.6-3.8
		c3.5-1.2,3.3,3.9,3.3,3.9c0.5,4.6-2.6,4.4-2.6,4.4C279.2,410.6,279.9,408.7,279.9,408.7z M287.6,416.8c-0.2,4.6-4.4,4.4-4.4,4.4
		c-1.8,0.3-1.7-1.1-1.7-1.1c0-2-0.9-6.3-0.9-6.3c-0.6-2.7,4.3-2.2,4.3-2.2S287.9,411.8,287.6,416.8"/>
	<path id="XMLID_186_" class="st0" d="M319.3,409.6c0,0-1.5-0.4-3.9-3.7c0,0-2.7-3.3-4.6-3.5c0,0,3.7-3.4,2.5-7.1
		c0,0-0.3-5.5-7.2-3.9l-4.8,1.3c0,0-1.4-0.2-0.7,2.5c0,0,1.4,12.9,0.7,16.3c0,0-2.9-4.5-3.9-5.7c0,0-4.2-6.5-3.9-7.8
		c0,0,0.8-3.3-1.1-2c0,0-2.7,1.5-3.8,1.4c0,0-2.2-0.3,0.8,2.4c0,0,1.5,0.6,4.6,6l6.7,10.6c0,0,1.3,2.4,3.1,1.2c0,0,1.7-0.2,1.9-2.2
		l-0.2-10.1c0,0,0.2-2.7,3.2-0.6c0,0,0.7,0.5,3.9,4.5c0,0,2.9,4.5,6.8,2.6C319.5,411.8,321.5,410.6,319.3,409.6L319.3,409.6z
		 M307.2,401.7c-1.8,1.3-1.5-0.4-1.5-0.4l-0.3-5.9c-0.3-2.5,1.8-1.9,1.8-1.9c2.3-0.2,2.6,4,2.6,4C310,400.4,307.2,401.7,307.2,401.7
		"/>
	<path id="XMLID_187_" class="st0" d="M318.5,389.6c0,0-0.7-1.5-2.3-0.1l-1,1.9c0,0-0.6,2-1.9,0.1l-0.8-1.8c0,0-0.9-1.4,1.6-1.8
		c0,0,7.2-3.4,8.1-4c0,0,1.3-1.6,2.4,0.2c0,0,2.1,1.6-0.1,2.5c0,0-3.6-0.3-2.4,1.4l7.6,15.1c0,0,2.9,1.8,1.4,3.1l-6.4,3.4
		c0,0-2.2,1.3-2.7-0.4c0,0-1-2.5,1.3-2.9l2-0.5c0,0,1.2,0,0.2-2.5l-2-3.9c0,0-0.3-1.4-1.8-0.2c0,0-2.7,2.5-3.8,1.1
		c0,0-2.2-1.7,0.3-3.1l2.3-1.5c0,0,1.2-0.2,0.1-1.9C320.5,393.5,318.3,390,318.5,389.6"/>
	<path id="XMLID_188_" class="st0" d="M338.1,381.3c0,0,0.2,2.7,2.3,0.8c0,0,1.5-1.8,0-3.7c0,0-1.4-4-8.3-1c-5.3,2.2-3,8-3,8
		s0.4,4.2,9.1,4.5c0,0,6.7-0.3,4.1,5.3c0,0-1.5,2.5-5.3,0.9c0,0-3.9-2-3.8,2.5c0,0,0.3,2.4,6.5,2.3c0,0,8.9-0.9,7.3-9.4
		c0,0-0.4-5.6-10.2-5.9c0,0-6,0-3.8-4.1C333,381.5,337.2,378,338.1,381.3"/>
	<path id="XMLID_189_" class="st0" d="M345.2,373.5c0,0-0.5-1.2-1.6-0.1c0,0-1.3,1.5-1.4,2.1c0,0-0.8,1.9-1.8,0.3l-0.8-1.8
		c0,0-0.8-1.1,1.1-2.4l7.4-5.9c0,0,1.3-1.6,2.6,0.3c0,0,1.8,1.3-0.1,2.6c0,0-2.3,0.5-2.7,1.4c0,0-0.9,0.5,0.1,1.5l8.6,11.8
		c0,0,0.9,1.3,2.7,1.9c1.7,0.7,0.5,1.7,0,2.5l-1.7,1.4c0,0-2.1,1.8-2.8-0.6c0,0-0.7-2.9-1.9-4.1L345.2,373.5"/>
	<path id="XMLID_190_" class="st0" d="M356,370.3c0,0-1.8-1.1-2.7,0.5c0,0-2.5,2,1,3.3l12.1,5.5c0,0,0.8,1.1,2,0.1l1.5-1.2
		c0,0,1-0.6,0.2-2.9l-6.8-16.5c0,0-1-1.5-1-4.4c0,0-0.1-2.7-1.8-0.6l-2.5,2.3c0,0-2,2.3,0.2,2.9c0,0,1.2-0.5,2.2,2.3l5.7,12.8
		c0,0,0.5,0.8-0.7,0.6L356,370.3"/>
	<path id="XMLID_193_" class="st0" d="M383.7,353.6c0,0-6.9-8-12.1-7.9c0,0-4-0.5-6.7,3.2c0,0-0.9,1.9-1.6,1.8c0,0-2,1.7,0.8,2.9
		c0,0,3.2,1.1,11.8,11.4c0,0,0.7,0.1,1.2,2.9c0,0,0.6,3.7,2.9,0.9l5.3-6.5C385.3,362.2,388,357.6,383.7,353.6z M380.5,363.1
		l-11.3-10.5c-2.9-1.3-0.8-3.3-0.8-3.3c2-1.9,5.4,0.9,5.4,0.9c3.8,2.2,7.5,7,7.5,7C383.4,360.4,380.5,363.1,380.5,363.1"/>
	<path id="XMLID_194_" class="st0" d="M372.7,338.8c0,0-1.8,1.8,1,2.7l15.8,11.4c0,0,1.3,1.8,2.3,0.5l1.2-1.3c0,0,1.3-1.7-0.6-2.5
		c0,0-1.4-0.2-4.7-2.4c0,0-9-7-10.7-8C377.2,339.3,374.7,335.7,372.7,338.8"/>
	<path id="XMLID_195_" class="st0" d="M391.5,315.9c0,0-4.2-2.1-4.9-0.1c0,0-1.3,1.5,1.3,3.4l3.7,3.6c0,0,1.6,1.4-0.8,1l-4.8-1.3
		c0,0-2.2-1.2-3,1.1c0,0-1.5,1.3,1.3,3.9c0,0,9.7,9.3,10,10.6c0,0-3-0.8-13.7-5.3c0,0-2.4-2.8-3.8,0.5c0,0-1.6,2.1,1.6,3.1l18.2,6.5
		c0,0,2.4,0.7,3.1-0.9c0,0,1.6-1.6-0.3-3.6l-10-11c0,0-1-0.8,0.6-0.7l9,2.5c0,0,2.3-0.1,0.9-1.7l-7.4-7.6c0,0,14.3,2.5,14.4,4.7
		c0,0,1.7,1.9,2.2-0.5l0.7-1.6c0,0,1.5-2.5-1.7-2.5"/>
	<path id="XMLID_196_" class="st0" d="M223.6,87.7c0,1.8-1.7,3.4-3.6,3.4c-2.1,0.1-3.7-1.5-3.7-3.3c-0.2-1.8,1.5-3.5,3.6-3.6
		C221.9,84.4,223.6,85.7,223.6,87.7"/>
	<path id="XMLID_197_" class="st0" d="M278.8,86c0,1.8-1.6,3.4-3.6,3.4c-2.1,0-3.7-1.5-3.7-3.3c-0.2-1.8,1.5-3.6,3.6-3.6
		C277.1,82.7,278.8,84,278.8,86"/>
	<path id="XMLID_198_" class="st0" d="M396.5,168.1c0,1.8-1.7,3.4-3.6,3.4c-2.2,0.1-3.7-1.5-3.7-3.4c-0.2-1.7,1.5-3.5,3.6-3.5
		C394.8,164.8,396.5,166.1,396.5,168.1"/>
	<path id="XMLID_199_" class="st1" d="M425.6,274.8l-1.1,0.6c1.6,9.7-1.4,19.4-6,27.8c-1.2,2.2-2.4,4.2-3.9,6.2l-0.3,0.3l0.4,1.3
		c0,0.5-0.1,1-0.1,1.5c-0.3,1.4-0.9,2.8-1.7,4l1.1-0.7c0.7-1.1,1.2-2.3,1.6-3.7c0.3-1,0.3-1.9,0-2.9l0.1-0.5c1.4-2,2.7-4.1,4-6.2
		C424.2,294.2,427.2,284.4,425.6,274.8"/>
	<polyline id="XMLID_200_" class="st1" points="393.5,284.5 393.4,284.6 393.5,284.5 	"/>
	<path id="XMLID_201_" class="st0" d="M390.2,306.8c-0.3-0.9-1.4-0.7-1.1,0.6c-0.1,4.6,3.8,5.6,4.1,5.8c1.1,0.8,4,0,5.6,1.9l0.5-0.6
		l-2.5-2.7l0,1.3c0.3,0.3-1.6-1.6-2.9-1.7c-0.6-0.1-1.5,0-2-0.4L390.2,306.8"/>
	<path id="XMLID_205_" class="st1" d="M393.3,304.4c0.4,0.5,0.9,1,1.2,1.6c0.1,0.2,0.3,0.5,0.4,0.8c-0.2-0.5-0.4-1-0.6-1.5
		C394.1,305.1,393.7,304.7,393.3,304.4 M392.3,298.3L392.3,298.3L392.3,298.3 M392.4,297.9L392.4,297.9L392.4,297.9"/>
	<path id="XMLID_210_" class="st1" d="M394.9,306.8c0.4,1.3,0.6,2.9,0.2,4.1C395.5,309.5,395.5,308.1,394.9,306.8 M392.3,298.3
		c-0.4,1.7-0.3,3-1,4.7c0,0,1.1,0.7,2.1,1.4c-0.1-0.2-0.2-0.3-0.3-0.5C392,302.2,391.9,300.2,392.3,298.3 M392.4,298
		c0,0.1-0.1,0.2-0.1,0.3C392.3,298.2,392.4,298.1,392.4,298 M393.6,296.9l-1.1,0.6c0,0.1-0.1,0.3-0.1,0.4c0-0.1,0.1-0.3,0.1-0.4
		L393.6,296.9"/>
	<path id="XMLID_211_" class="st2" d="M393.6,296.9l-1.1,0.6c0,0.1-0.1,0.3-0.1,0.4l0,0.1c0,0.1-0.1,0.2-0.1,0.3v0
		c-0.4,1.9-0.3,3.9,0.7,5.6c0.1,0.2,0.2,0.3,0.3,0.5c0.4,0.3,0.8,0.7,1,0.9c0.3,0.4,0.5,0.9,0.6,1.5c0.6,1.3,0.6,2.7,0.2,4.1
		l1.1-0.6c0.2-0.6,0.2-1.1,0.2-1.6c0-1.8-0.9-3.4-2.1-5c-0.8-1-1.2-2.3-1.2-3.7C393.1,298.8,393.3,297.8,393.6,296.9"/>
	<path id="XMLID_212_" class="st2" d="M398.9,302.2l-1.1,0.6c-0.3,1.3-0.7,2.6-1,3.9l1-0.6C398.1,304.8,398.5,303.5,398.9,302.2"/>
	<path id="XMLID_213_" class="st0" d="M399.4,296.4c-0.6-3.7,1.8-9,3.5-11.7c-0.2,0.3-4.1,5.4-4.7,8.5c-0.2,0.9-0.2,2.9,0.1,3.8
		L399.4,296.4"/>
	<path id="XMLID_216_" class="st1" d="M395.6,288.2L395.6,288.2L395.6,288.2L395.6,288.2 M400.7,281.5l-1.1,0.6
		c-2,1.6-3.8,5.7-4,6.1C396.9,285.8,398.5,283.3,400.7,281.5"/>
	<path id="XMLID_217_" class="st2" d="M399.6,298.3l-1.1,0.7c-0.8,0.6-1.3,1.4-1.4,2.4l0.6-0.3l0.5-0.3
		C398.3,299.7,398.8,298.8,399.6,298.3"/>
	<path id="XMLID_218_" class="st0" d="M104.3,290.7c0.7,2.9,2.1,7-2.3,9.2c0,0,0.9,0.5,0.7,1.7c0,0.2,0,0.9,1.3,1.6
		c0,0,0-2.5,0.9-3.1c3.4-2.5,1-9,0.4-9.6C104.3,289.6,104.3,290.6,104.3,290.7"/>
	<path id="XMLID_219_" class="st0" d="M121.6,299.6c-0.5,0-3.2-1.1-3,1.8l1.9-0.3l0.8-0.7L121.6,299.6"/>
	<path id="XMLID_220_" class="st0" d="M116.5,306.1l0.9,0.4c0.1,0,0.1-2.4,0.1-3l-0.7-0.1l-0.4,0.7
		C116.4,304.1,115.7,305.5,116.5,306.1"/>
	<path id="XMLID_221_" class="st0" d="M110.9,310.9l1.5-1.2c-0.2,0.1,1.1,0.6,1.7,0.5c0.5-0.1,1.9-2.2,2.5-2.9l-1.1,0.6
		C115.5,307.9,110.9,307.2,110.9,310.9"/>
	<path id="XMLID_222_" class="st0" d="M125.9,295.9c-0.6-0.1-1.6-0.3-2.2,0c-0.8,0.3-1.4,1.1-1.8,1.8c0.8,0.2,2.6-0.8,1.7-0.4
		C125.8,296.7,125.8,295.9,125.9,295.9"/>
	<path id="XMLID_223_" class="st0" d="M124.6,289.3c-0.4,0.2-0.6-0.6-1.6,0.1c-0.9,0.6-0.4,0.9-0.8,1.1c0.8,0.2,1.4,0,1.9-0.3
		L124.6,289.3"/>
	<path id="XMLID_224_" class="st0" d="M115.8,282.3c-1.1,1.3-4.2,0.4-4.8,0.7c-1,0.5-2,1.9-2.3,3.2l1.1-0.2c0.3-0.5,1.2-2.2,2-2.1
		c4.5,0.5,4.9-1.3,5.2-2.3L115.8,282.3"/>
	<path id="XMLID_225_" class="st0" d="M125.1,277.9c-0.1,0.7-0.2,1.4-0.3,2.1l0.6-0.3l0.5-0.3c0.1-0.7,0.2-1.4,0.3-2.1l-0.6,0.3
		L125.1,277.9"/>
	<path id="XMLID_226_" class="st0" d="M127,283.8c0.3,0.8-0.4,1.7-1,2.1l1.1-0.6c0.6-0.5,1.3-1.3,1-2.1L127,283.8"/>
	<path id="XMLID_227_" class="st0" d="M431.3,247.7l-1.2,0c0,0.8,0,1.7,0,2.5c0,98.4-79,178.7-177.6,179.9c-0.8,0-1.6,0-2.4,0
		C151.7,430.2,71.3,351,70,252.3c0-0.8,0-1.7,0-2.5c0-98.4,79.1-178.7,177.6-180c0.8,0,1.6,0,2.3,0c98.3,0,178.7,79.1,180.1,177.9
		L431.3,247.7l1.2,0c-1.4-100-82.8-180.2-182.6-180.2c-0.8,0-1.6,0-2.4,0c-100,1.3-180,82.7-180,182.3c0,0.8,0,1.7,0,2.5
		c1.4,99.9,82.8,180.1,182.5,180.2c0.8,0,1.6,0,2.4,0c100-1.3,180-82.7,180-182.3c0-0.8,0-1.7,0-2.5L431.3,247.7"/>
	<polyline id="XMLID_228_" class="st0" points="90.5,301.9 90.5,301.9 90.5,301.9 	"/>
	<path id="XMLID_263_" class="st0" d="M431.2,268.3c-1.6,3.3-7,6.4-10.3,7.4c-3,0.8-5.7,1.8-8.7,2.3c-6.8,1-11.9,2.5-17.4,6.6
		c0.2-0.2-0.5,0-0.9,0.1c1-4,1.8-8,2.4-12c2.4-16,2.1-32.4-0.8-48.3c0-0.1-6.2-28.5-14.3-42.1c-12.5-21.3-25.8-40.9-49.8-56
		c-0.8-0.5,35.3,26.7,53,65.9c-0.6-0.7-5.7-4.8-9.9-1.3c-0.6,0.5-2.3,4.3,0.8,6.2l0.8,0.2l0,0c-0.2,0.8-0.1,1.7,0.6,2.1l-0.1,0.1
		c-2.2,3-4.1,6.5-5,10.1c-0.6,2.2-0.6,4.7,1.2,6.4c1.9,1.7,7.9,2.3,7.9,2.3c0,0.2,2.7,27.2,2.7,38l-12,10c-0.4-0.8-0.3-6.5-0.3-8.9
		c0-13.8-1.1-27.5-4.7-40.9c-1.4-5.4-3.8-11-6.6-15.9c0,0,4.3,12.1,5.9,17.9c3.5,13.3,4.3,26.9,4.3,40.6c0,2.6,0.3,5.5,0.3,8
		c0,0.5,0.1,0.9,0.6,0.7c0.6-0.3,12.5-10.8,12.7-10.8c0.5,1.5,1,2.6,2.7,2.8c1,0.1,2.4-0.1,3.3-0.3c1.8-0.4,3.9-0.9,6,0.6
		c0,0.4-0.1,0.9-0.1,1.3c-1.7-0.7-4.1,1.1-4.7,0.9c2.3,1.3,3.3-0.6,4.6,0.2c-0.1,0.9-0.2,1.7-0.2,2.6c-0.8-0.6-1.6-1.3-1.6-1.3
		s0.8,1.7,1.5,2.4c-0.2,1-0.3,1.9-0.4,3c-0.2-0.1-2.6-1.2-2.9-2.8l-0.9-0.1c-0.8,0.9,2,3.3,3.7,3.6c-0.2,1.8-0.4,3-0.7,4.5
		c-1.8,0.5-4.8,1.2-5.4,0.5c0.5-0.2,2.3-1.5,1.9-1.5c-1.3,0.2-3.5-1.4-3.5-1.4c0,0.7,0.3,1.4,0.4,2.1c-1.2-0.2-4-0.3-4.3-0.3
		c-0.7,0-2,0.5-2.4,1c-1.8,2.2-8.5,8.9-9.2,9.2c-0.5-0.5-0.3-1.3-0.1-1.8c1.9-5.6-0.6-8.6-0.6-8.6c0.2,3.4-0.8,6.6-3,14.2
		c-0.6,2.2,5.5-1.6,7.2-3.6c6.2-7,7.9-5.6,8-5.7c-0.7,7.5-2.4,14.9-4.3,22.3c-0.9,3.5-1.8,7.2-3,10.6c-0.4,1.1-0.8,2.1-0.9,3.3
		c-0.1,2.8,3.7,1.9,5.9,1.1c-8.3,16.6-20,31.4-34.2,44c-3.3,2.9-6.6,5.6-9.9,8.1c-3.8-2,0.3-12.6,1.4-15.3
		c2.7-6.9,6.4-13.5,9.7-20.3c1.6-3.3,3-6.8,4.7-10.1c4.1-7.7,4.2-9.7,4.2-9.8c1.2-0.1,2.6-0.6,3.6-1.4c-0.2,0.8-4.8,11.7-7,16.6
		c-2.1,4.6-4.3,9.2-6.6,13.8c-1.7,3.4-3.7,6.5-5.5,9.9c-2.5,4.5-4.2,9.9-4.9,15c0-0.2,0.8,1.1,1.1-0.6c1.1-8.8,6.9-15.6,10.8-23.3
		c4.7-9.1,9.1-19,12.2-28.7c0.6-1.8,1.2-3.8,1.3-5.8c0.1-0.9,0.7-1.3,1.3-2c1-1.2,2.1-2.6,1.9-4.2l-1.1,0.6c0.1,1.4-0.7,2.6-1.5,3.7
		c-0.3,0.5-1.8,1.6-1.7,2.1c0,0.8,0,1.4-0.2,2.2c-0.1,0.1-3.2,2-4.5,1.4c-0.7-0.4-1-1-1.6-1.4c-2-1.2-5.1-0.3-7,0.8
		c-2.8,1.7-8,5.7-8.5,2.6c1.2,0.3,3-0.8,5.1-2.6c4-3.4,12-4.4,12-4.4c0.2-0.5,2.4-1.4,2.4-1.4c-2.6-0.3-10.1,1.6-17.4,6.6
		c2.5-2.3,3.5-4,4.5-6.5c-0.3,0.2,7.9-4.6,11-7.6c1.9-1.8,1.6-0.1,2.8-2.5c3.7-7.4,5.5-18.3,6.4-26.6c1.1-10.8,1.2-21.9-0.6-32.6
		c-1.9-11.8-4.9-24-10.3-34.8c0.5-0.2,0.9-0.5,1.4-0.7c0.6-0.4,0.8-1.8-0.2-1.4c-7.3,3-20.1,3.6-23.1,3.3c-1.8-0.2-3.6-0.3-4.9-1.7
		c-0.5-0.6-3.9-7.9-3.6-9.2c17.5,1.7,24.7-4.3,25.9-7.8c0.8-2.1-5.3-12.1-6.2-13.5l0,0c-8.5-25.9,3.3-26.4,3.7-26.5
		c-0.8,0.1-14.1-1.6-6.5,22.5c-6.6-9.8-14.1-16.4-14.1-16.4c1.2,2.2,1.2,2,1.7,3.2c-3.6-1.7-11.9-4.4-12.2-4.5
		c-0.5-0.9-0.9-1.8-1.4-2.8c8.4,3.7,10.3,1,10.7,0.9c-2.2,0.6-10.3-2.3-12.2-4.1c-1.1-2.6-3.3-7.6-3.5-7.5c1.5,4.3,2.5,9.2,4.7,13.2
		c-0.5-0.1-1-0.2-1.4-0.5c-1-0.4-3.7-3.6-4.6-4.1c-0.6-0.3,0.7,2.2,0.1,2c-0.3-0.1-3.5-4.2-4.2-4.4c-0.6-0.3,0.2,2.6-0.4,2.4
		c-2.4-0.9-7.9-2.9-7.8-6.4c0.7-0.2,1.4-2.8,1.9-4.2c1.8-1,3.3-5.6,3.4-6.6l-0.5-0.2c0,0-1.2,2.1-1.9,2.6c0.1-0.9,0.1-1.9-0.3-2.5
		c-0.8-1.2-6.6-2.8-7.2-3l-1.4,0c-0.2,0,3.6,1.3,5.3,2.2c3.1,1.5,1.5,6.2,1.5,6.4c-0.8-1.2-2-2.3-3.1-3c-0.8-0.5-1.8-1.3-2.6-1.7
		c-0.5-0.2-0.6,0.5-0.7,0.4c0.9,0.7,3,2.7,3.2,2.9c1,1.1,2,2.3,2.3,3.4c0,0-0.3,1.5-0.6,2.2c-0.8-1.5-1.8-2.9-2.9-4.2
		c-0.7-0.8-3.7-3.5-8-5.3c-4.8-1.9-10.8-8.1-12.3-10.7c2.5,4.1,5.4,8.6,9.8,10.6c2.5,1.1,6.1,3,6,3.1c-1,3.6-5.3,6.3-6.8,5.9
		c2.1,0.6,4.3-0.3,5.7-1.4c1.1-0.9,2-2.1,2.8-3.4c2.6,2.1,5.2,6.9,5.2,6.9c-0.3,1.2,1.4,3.6,2.2,4.3c3.6,3.2,8.6,4.8,13.1,6.4
		c3.5,1.2,16.2,5.1,18.8,6.4c0.2,0.3,9.9,12.4,13.3,19.2c0.9,1.8,4.5,11.2,4.3,11.4c-6.1,5.7-21.6,5.6-21.6,5.6s-1.8-3.6-2.9-3
		c0,0-2.9-4.5-3.4-3.8c0,0,3,5.8,2.4,11.7c0,0,0.5,3.3,1.2,1.9c0,0,0.1-3.4,1.6-1.5c0.5,1.1,1.6,3.6,1.6,3.9
		c0.3,1.6,3.4,3.3,3.5,3.3c1,4.2,2.7,8.3,5,12.1c0.7,1.9,5.2,10.9,6.4,13.6c1.2,2.7,1.4,5.8,1.9,8.6c0.8,4.7,3.5,29.8,3.5,29.8
		c-0.1,6.5-0.9,13.2-2.8,19.5c-0.9,3.1-4.7,11.2-15.8,13.8c-1.7,0.4-3.6,0.2-5.5,0.3c3.6-2.3,6.6-5.6,7.8-9.9
		c-0.1,0.3-6.4,8.8-11.5,10c1.9-1.5,4-3.9,7-8.1c0.9-1.4,1.7-3,2.4-4.5c1.5-2.6,0.8-7.2,0.7-7.4c0.9,1.5,1.7,3.2,1.9,4.8
		c0-0.2,0.8,1.1,0.9-0.2c0.2-2.8-2.2-6.1-3.9-8.2c-1.6-1.9-3.1-4-4.8-5.8c-3.3-3.4-7.8-6.1-12.6-6.9c-0.8-0.1-5.6-3.3-7.6-4.2
		c-2.4-1-4.9-1.7-7.5-2c-0.7-0.1-1.1-0.5-1.7-0.8c-4.2-2.6-11-0.1-11,0c-2.5-1.7-10.6-5.6-10.6-5.6c0.8-3.3,2.4-6.5,4-9.5
		c1.5-2.9,5.6-9.6,5.9-10.1c0-0.1-3.1-5.9-3.7-10c2.8-0.3,5.6-1.7,8.1-3.5c-0.3,0.2-12.6,6-18.3-2.4l-1.5-0.9
		c-0.5-0.4-0.8-1-1.1-1.6c-0.2-0.8,0.1-1.7,0.2-2.5c0.1-0.4,1.8-8.3,2.1-10.2c0.7-3.9-2.2-8-5.3-10.1c-0.1-0.1,3.1,3.2,4.1,7.2
		c-4.8,0.7-9,3.8-13.3,5.5c-5.6,2.2-8.4,4.2-13.7,5.9c-3.4,1.1-18.2,4.9-29.5,1.7c-0.2-0.1-3.7,0.3-6.2-1.9c-1.3-1.2-1.4-3.3-1.4-5
		c-0.1-2.2,3.5-11.2,5.3-14.7c5.3-10.9,12.9-20.7,21-29.8c1.4-1.5,4.1-6,4.6-6.8c3.2-2.9,8.8-5.8,8.5-5.6c4.4-3.1,7.1-3.5,13.1-4.5
		c0,0,0.7,3.2,2.4,3.4c6.4,0.5,11.2,2.3,12.9,3.6h0c2,2.3,3.2,11.1,3.3,12.4c0,0.5-1.1,2.4-2.5-0.2c0.3-0.9-0.7-7.5-3.6-10.8
		c-0.6-0.6-2.4-1.5-4.5-2c2.3,0.9,4.1,3,4.7,4.2c1,2,2.2,4.4,2.6,8c0,0.4-1.8,3.9-3.8-2.8c-0.7-2.3-2.4-5.4-4.9-5.8
		c-1.4-0.2-5.5-1.6-12.7,2.1c2.3-1.2,14.2-4.6,15.9,3.3c-2,0.7-4.1,0.8-6,0.9c-2.9,0.1-5.7-0.6-8.7,0c-2.1,0.4-4.4,0.4-6.2,3.8
		c-2.2,4.2-4.4,8.5-6.3,12.8c-0.7,1.5-1.2,2.8-1.7,4.4c-0.8,2.3-4.5,8.9-5.1,10c-1.7,2.5-3.1,5.3-5,7.6l1,0.2
		c2.8-3.4,5.9-8.7,5.9-8.7c3.8-1.8,10.3-6,13-9.2c6-7.2,12.7-12,21-17.7c-0.3,0.2,1.3,1.4,2.8,1.2l1.1-0.6c-0.1,0,3.6,3.7,4-1.1
		c0.2-2.7-1.5-8.9-2.2-10.3c0.6,0.6,2.7,2.2,3.3,11.1c0,0,2,0.9,2.8,3.5c-0.1-0.2,0.6-2.6-1.5-3.9c-0.8-0.5-0.7-1.3-0.7-2.1
		c0.1-2.4-0.4-4.8-1.6-6.9c-2-3.5-5.4-5.8-9.1-6.9c-1.3-0.4-4.8-1-7-1.1c-1.8-0.1-2.3-1.4-2.3-3.1c0-0.7,1.2-1,1-1.9
		c-0.2-0.9-0.9-2.2-1.1-3.3h0.1c0.7,0.1,1.4,0.3,2.1,0.6c0.5,0.1,1.5,0.5,2,0.4c0.1,0,0.3,0.2,0.5-0.3c0.3-0.5-1.4-1.2-2.2-1.4
		c-0.8-0.2-1.7-0.2-2.3-0.8c-0.8-0.8-0.6-2.5-0.2-3.4l1.4,0.9c2.1,0.7,3.3-1.1,3.6-1.9c-2.4,2.6-4.8,0.2-4.8,0.2
		c-0.1,0-0.6,0.1-1.3,0.9c-2.8,0.7-2.3-2.2-2-3.3c0.8-2.9,2.3-5.6,3.2-8.5c0.4-1.3,0.1-2.9,0.2-4.4c0.1-3.6,3.2-9.7,3.6-10.3
		c0.4-0.6,1.1-0.8,1.2-0.8c0.4,0,2.1-0.3,1.9-1.2l-3.9-0.2l-1.1,0.7l0,0c0.5,0.1,1.1,0.2,1.7,0.4c-0.7,0.7-3.4,6.1-4,7.8
		c0-2.1,1-7,0.9-7.5c0-0.6-0.4-1.1-0.5-1.7c-0.3-1,0.8-1.6,1.6-2.1c4.5-3,9.7-4.9,15-5.6c14.6-2,25.6,3.2,28.8,5.6
		c5.2,3.9,7.8,9.7,8.4,15.9c-1.3,2.8-2.7,6.9-3.9,9.6c-4.4,10.2,1.9,12.5,2,12.5c-2.7-1.8-1.8-8.9-0.8-12.7c0.7-2.7,1.7-5.5,2.9-8.1
		c0,0.1-0.5,6.2-0.2,9.2c0.3,3.7,0.1,10.4,11.2,11.9c1.4,0.5-0.7-4.1-0.7-4.1c-1.2-3.4-3.4-3-3.4-3c-3.2-0.6-4.9-1.6-5.5-2.1
		c-0.3-1.3-0.5-2.6-0.6-3.8c1.1-0.3,5.2,1.6,5.2,1.6c4,1.8,2-2.7,2-2.7c0-3.2-2.4-2.4-2.4-2.4c-1.9,0.1-4-1.4-4.7-2
		c0.1-1.5,0.1-3,0.1-4.4c0.9-0.4,3.2,0.7,3.2,0.7c2.9,1.8,2-1.4,2-1.4c-0.1-2.1-3-2.2-3-2.2c-1.3-0.2-2.2-0.8-2.8-1.4
		c-0.2-1-0.5-1.8-0.9-2.7c2.6,1.5,5.1,1.2,6.6,0.4c0.1,0,3.5-1.8,6.5-8.9c0.7-1.7,3.3-7,3.4-7.6c0-0.6,2.6-0.3,2.1-1.6
		c-0.1-0.6-3.1-1.5-3.4-1.8c-1.7-0.9-2.2-0.5-2.3-0.4l0.1,0c-0.5,0.5-0.2,1.1-0.1,2c0.2,1.3-3.3,10-5.2,12.9
		c-0.9,1.3-1.8,2.5-3.5,2.2c-1.5-0.3-3.5-1.5-3-3.3c0.9-2.4,4.2-10.3,4.8-12c1-2.5,2-3,2.1-3h0c1.7-1.1-1.6-2-2.3-2.2
		c-1.3-0.6-2.5-1.1-3.9-1.8c-1-0.5-2,0-2,0c-0.6,0.5,0.1,1.6,0.1,2.3c0,0.7-2,5.8-2.8,7.8c-0.8,2.1-2.6,6.8-2.7,7.1
		c-1.3-1.1-2.7-2.1-4.2-2.8l0.4-0.4c1.3-2.1,0.6-5.5-1.2-7.1c3.6-1.1,4.8-5.8,2.8-8.8c-2-3-5.9-3.2-9.1-3.9c-1.3-0.3-2.6-0.6-3.8-1
		c-0.6-0.2-2.4-0.7-2.5-0.1l0,0l0.1,1c0.7,1.7,0.6,3.3,0.1,4.9c-0.9,3.4-1.8,6.8-2.7,10.2c-5-0.6-9.8-0.1-14.4,1.2
		c-0.2-0.5,0.3-3.2,0.4-4c0.1-0.5,0.4-1.7-0.2-1.9c-1-0.5-2.9,2-3.5,2.6c-1.2,1.4-2.6,2.3-4.4,2.8c-0.8,0.3-2.8,0.9-2.8-0.5
		c0-0.8,0-6.4,0-8.4c1.9-0.4,3.4,0,4.4,1.8c0.2,0.4,1.4,0.2,1.7-0.2c0.3-0.6,0.3-4.2,0.1-5.3c-0.1-0.5-1.8,0.4-1.9,0.5
		c-1.1,0.4-3.5,0.6-4.2-0.3c0-2,0-4.1,0-6.1c0.8-0.1,1.8,0.1,2.5,0.1c1.5,0.1,3,0.7,4.1,1.6c0.9,0.7,1.4,1.7,2.4,1.5
		c0.1,0,1.3-0.4,0.6-2.6c-0.3-0.8-0.5-2.1-1.2-2.7c-0.4-0.4-8.6-0.7-10.3-0.8c-1.6-0.1-4.8-0.7-6.1,0.6c-0.5,0.5-0.1,1,0.3,1.3
		c0.8,0.7,1,1.9,1.1,2.9c0.2,1.7,0.3,13.1,0.3,13.6c0,1-0.8,3.8-1.4,5.8c-0.3,0.9,10.3,0.2,12.2-0.1c-1.6,0.7-3.1,1.5-4.6,2.3
		c-1.5,0.9-4.1,1.9-4,4.3c0,0.9,0.7,1.6,0.6,2.6c-0.2,1.3-0.7,2.5-0.8,3.8c-0.2,1.9-0.2,3.9,0.1,5.8c-0.2,1.5,0,2.9-0.1,4.5
		c-0.1,1-2.1,5.1-2.5,6.3c-0.5,1.6-2,3.8-0.8,5.3c1,1.4,3.3,0.9,3.3,0.8c0,0-1.8,3.1,0.1,4.1c-0.5,1.1-0.8,3.5-0.4,4.5
		c-2.7,0.5-5.6,0.9-8.1,1.8c-2.5,0.9-4.9,2.5-7.1,3.9c-0.4,0.2-5.9,2.3-10.6,10.8c-0.3,0.5-3,3.6-3.9,4.6
		c-8.8,10.4-16.9,21.9-21.7,34.7c-1.2,3.3-3.4,9.1-1.1,12.2c-8.2-0.3-16.5-0.6-24.7-0.8c-4.4-0.1-8.8-0.2-13.3-0.1
		c-2.7,0.1-5.8,1.2-5.8,1.2c4.1-0.4,8.3-0.3,12.5-0.3c4.5,0.1,29,0.7,30.1,0.9c1.2,0.1,2.3,0.1,2.3,0c1.8,1.7,4.4,1.1,6.7,1.8
		c4.5,1.2,9.5,1.5,14.2,1.2c4.8-0.3,8.7-0.6,12-0.9c7.8,0.2,16,0.7,22.4-0.4c-6,0.1-12-0.1-18-0.2c0.6-0.1,22.7-10.2,26.1-10.9
		c0,0.7-0.1,1.3-0.3,2c-0.7,2-1.6,7.5-1.7,8.6c0,0.7-0.5,1.4-0.5,2.1c0,2.1,2.1,2.6,3.3,3.9c3.8,4.2,7.9,4.7,9.5,4.7
		c0.1,2.1,3,9.5,3.8,10.5c0.1,0.1-7.1,10.4-9.6,18.7c-0.6-0.2-3.3-0.8-3.3-1.2c-0.5-2.4-1.9-4.6-3.4-6.5c-1-1.3-2.1-2.8-3.8-3
		c-1.2-0.1-2.5-0.2-3.7-0.4c-9.6-1-19.1-1.9-28.6-2.8c-3.9-0.4-8.2-1-12.1-1.4l-1.1,0.9c1.5,1.7,3,3.4,4.5,5.2
		c-2.5,0.1-5.3-0.1-7.8,0l-0.5,0.5l-0.1,0c1.1,0.9,2,2,3,3.1c-4,0.6-7.2,1-9.4,4.7c-0.2,0.4-1.7,3.8-4.9,6.6c-1.4,1.2-3.3,2.6-3,5.1
		c0.1,1,1.1,1.1,2.2,1l0,0l-0.1,0.1c-0.4,0.4-9.6,8.5-11.4,16.5c-1.2,5.4,1.6,16.2,2.1,18.3c0.5,2.6,2.7,19.8,2.2,26.7
		c-0.1,0.5,0.8,18.3,1.2,21.8c0.2,2,1.2,2,1.2,2c2.2,0.5,4.5,0.9,6.5,2c0.9,0.5,1.8,1.1,2.2,2.1c0.3,0.9,0,1.9,0.3,2.8
		c1.1,3.3,6.5,1.4,8.9,1.3c4-0.3,8.1,1,12.2,1.1c0.8,0,7.2-0.5,8.1,0.3c0.4,0.3,0.7,0.8,1.1,1.1c2.1,1.4,4.8-0.5,5-0.7
		c1-0.9,3.6-4.2,4-4.9c0.1,1.8,2.4,4.6,2.1,5.2c-0.1,0.2-5.6,5.3-6.1,7.6c-0.2,0.9-0.4,1.8-0.7,2.7c-15.4-0.7-55.4-1.9-59.8-2.1
		c-2.3-0.1-1.1,1.4-1.1,1.4c15.4,0.7,54.6,1.2,60.7,1.4c0,0.1-0.8,2-0.6,4c0,0.3-5.8,5.6-6.8,12.1c-0.3,2.2,1.5,2.3,1.7,2.3
		c-0.3,0.2-3.9,2.7-11.7,4.2c-28.3-6-53.7-20.3-74.1-40.5c-10.8-10.8-19.7-23.2-26.4-36.7c-0.3,0.4-4,3.6-8,4.7c0-1.3-1-2.6,1.1-3.2
		c1.6-0.4,1.4-2.9,1.6-3.2c0.3-0.4,2.5-1.6,3.4-2.2v0c0.7-0.5,3.9-4.1,5-5.1c1.1-1,1.8-2.5,2-3.9c0.2-1.2,0.7-1.5,2.5-1.8
		c1.8-0.3,2.6-2.9,2.7-4c0.1-0.9-0.8-2.3-1-3.2c-0.6-2-0.3-4.7,0.5-5.9c1.1-1.7,3-3.3,0.1-6.5c-0.9-1-0.4-3-0.4-4.4
		c0.1-2-1.3-5.1-8.3-0.1c-0.5,0.3-1.1-0.5-1.8-0.4c-0.7,0.1-2.4-0.2-4,3.3c-0.4,0.9-1.3,1.2-2.3,0.9c-0.7-0.3-1.7,0.3-2.4,0.7
		c-0.8,0.4-1.9,0.6-2.8,0.7c-0.4-1.4-0.7-2.8-0.9-4.2c-6.2-31.1-2.4-63.1,11.8-91.5c9.2-18.4,19.9-35.8,35.9-48.9l-1.1,0.6
		c-24.7,20.3-40,48.5-47.3,79.3c-5.3,22.1-5.4,45.9-0.3,68l0.1,0.5c1.4-0.6,4.9-3.8,5.3-3.8c5.2,0.3,4.8-1.9,5.6-3.1
		c0.7-1,1.4-1.5,2.6-1.3c1,0.2,1.6,0.2,2.6-0.2c1.6-0.6,3.6-2.1,5.2-1.9c1.3,0.2,0.8,1.3,0.3,3.6c-0.2,1.1-0.2,2.2,1.1,2.9
		c1.8,0.9,1.2,2.4,0.5,3.9c-0.5,1-1.5,1.7-1.9,2.7c-0.6,1.5,0.5,2.7,0.5,5c0,0.5,0.9,3,0.9,3.3c-0.1,1.3-2.4,2.5-4.3,2.4
		c-0.5-0.1-1.1,1.4-1.1,1.8c-0.1,0.9-0.2,1.9-0.5,2.9c-0.6,1.4-2.2,2.5-3.5,3.4c-1,0.7-1.5,1.8-1.9,3c0.2,0.5-2.3,1.5-3.8,1.6
		c-2.4,0.2-1.3,3.3-1.5,3.8c-0.2,0.3-1.4,1.1-1.8,1.4c-1.1,0.6-1.5,2.5-1.8,3.8c-0.4,0.1-1,0.1-1.5,0.2c-0.3-3.6,1-7.5,2.1-10.9
		c1.5-4.6,3.6-9.1,5.8-13.4c2.8-5.5,5.5-10.7,8.9-15.9c-0.2,0.3-0.3-0.7-1.2,0.3c-3.3,5.1-15.2,25.7-15.7,28.5
		c-0.1,0.4-1.2,0.5-1.8,0.3c-0.4-1.1-0.6-2.4-0.1-3.5c-0.1,0.3-2.9,1.9-0.5,5.3c0,1.3-0.9,4.9,1,6c0.4,1.1,1.1,3.7-0.7,3.5
		c-1.6-1.6-2.6-4.4-2.7-6.3c-0.1-0.8,0.7-1.5,0.2-2.6c-0.6-1.3-1.6-2.3-1.1-3.7c0.2-0.6,1.9-3.8,0.7-4.9c-2.8-2.6-1.4-5-0.2-6.8
		c0.6-0.9,2.7-1.3,2-3.9c-0.2-0.9-0.5-1.3-0.7-2.2c-0.7-2.4,1.3-3.9,3.2-5.1c-0.9-1.3-3.4-2.7-4.7-3.4c-4.8-2.2-9.6-2.9-14.6-3.7
		c-5.9-0.9-12.8-3.3-16.3-8.4l0.7,3.6c1.8,2.7,3.7,3.4,6.5,4.9c2,1.1,3.8,1.8,5.8,2.2c-1.8,0.8-3.7,1.6-3.4,4.1
		c0,0.2,0.3,3.1,0.2,3.7c-0.1,1.9-0.4,2.8-1,4.5c-0.8,1.8,0.9,4.6,1.8,6.2c0.1,0.2-0.4,1.9-0.5,2.5c-0.4,3.9,4.2,9,7,10.5
		c0.7,1.8,2.2,3.2,3.7,4.2c1,0.6,2.9,1.3,2.5,2.6c-4.9-2.1-9.5-5.5-13.6-9.4l-0.5,2.1c18.4,21,37.5,7.5,38.8,6.3
		c11.4,21.4,28.3,39.9,48.7,53.4c15.5,10.3,32.6,18.7,50.8,22.6c0.4,2.3,1.6,4.7,4.1,5.1c1.5,0.3,2.8-0.4,2.8-0.4
		c1.1,5.6,10-1.3,11.3-2.5c-0.3,0.3-9.8,5.4-10.3,2.6c-0.2-0.9,0.6-1.4,1.1-1.7c1.3-0.9,4-2.9,4.1-2.9c-4.2,2.2-6.3,3.6-6.3,3.7
		c-1.8,0.2-3.2,0.1-4.1-1.5c-0.5-1.1-0.1-2.6-0.1-2.6c1.8-0.3,3.6-0.8,5.4-1.3c8.8-2.3,19.5-11.5,20.5-15.1
		c9.7-3.8,22.6-5.5,23.2-6.1c-7.2,0.2-17.2,1.9-29.2,7.2c-3.6,1.6-6.9,3.5-6.1,4.9c0.7,1.1,2.4-0.6,2.4-0.6c1.1-1.8,7.3-4.4,7.3-4.4
		c-0.2,0.4-3.6,4.8-8.1,7.7c-0.4,0.2-2.5,2.2-3.8,0.3c-1.6-2.4,4.8-10.4,5.5-11c1-0.9,1-1,1.1-2.4c0-0.7,1-3.1,1.3-3.6
		c0.7-0.7,0.9-2,1.3-2.9c0.8-1.9,1.9-3.7,3.3-5.2c1.6-1.8,2-3.5,1.7-4.2c-0.8-1.8-2.4-3.9-2.1-5.9c-0.7-1.3-2,0.2-2.5,0.9
		c-1,1.2-3.9,5.7-5.5,6.6c-0.6,0.1-1.1-0.5-1.4-1c-0.3-0.5,0.5-0.9,0.5-1.3l-5.5,0.1c-0.8,0-4.2,0.6-8.1-0.5c-2.6-0.7-5.3-0.8-8-1.1
		c-2.2-0.2-4.4,0-6.5,0.4c-0.6,0.1-3,0.3-2.9-3.6c0-1.2-2.3-2-3.2-2.4c-2-1-5.8-1.4-5.6-1.5h0c-1-0.1-1.1-1.8-1.2-2.5
		c-0.3-2-0.7-15.1-0.3-19.5c0.8-9.4-1.3-18.7-2.8-28c-0.7-4.2-2-8.8-1.8-13.1c0.4-14.5,14.9-22,15.1-22.1c4.1-0.1,12.7-0.2,12.8-0.2
		c-1.9,0.6-20.4,7-17.6,22.5c1.2,6.8,4.6,13.2,8.3,18.9c4.1,6.4,14.9,17.3,14.9,17.3c-6.4-7.3-13.2-18.3-16.4-23.9
		c-11.6-20.2-0.3-26.2,2.6-28.6c4.8-3.9,14-5.9,14.1-6c0.6,4.1,6.5,2.8,6.5,2.8c1.1,1.1,18.2,19,18.6,19.1
		c10.3,0.3,5.6,0.6,27.2,1.2c2.1,0.1,24.1,0.3,25.5-1.5c0.9-1.2,0.1-4.4-0.5-5.5c-1.1-2.5-2.7-4.8-4.4-6.9c-1.6-2-3.2-3.9-4.9-5.8
		c3.4,1.8,6.1,5.6,8.4,8.3l0.1-0.7c-4.7-9-10.7-10.1-10.8-10.1h0c-0.9-0.8-1.7-1.7-2.5-2.5c-0.8-0.8-1.7-1.6-2.6-2.3
		c4.6-2.2,9,0.1,9.8,0.2c2.5,0.2,4.9,0.9,7.2,1.8c2,0.8,7.1,4.1,8,4.4c4.1,1.3,8.3,3.7,11.6,6.9c1.7,1.7,3.7,3.3,5.2,5.1
		c2.7,4.6,2.1,10.4-1.4,14.8c-1.2,1.5-7.1,10.4-15.6,9.3c-2.9,0.1-5.9,0.1-8.9,0.1c-9.6-0.1-37.5-2.1-41.7-3.1c-4.1-1-7.4-2.8-10-6
		c-2.7-3.3-6-6-8.6-9.3c-3.7-4.6-8.7-8.5-8.9-8.7c0,0,6.4,7.8,8.1,9.8c2.5,2.8,8.3,10.9,11.9,13.4l0,1.2c-0.3-0.4-9-2.8-15.9-12.9
		c-0.4-0.5-1.1-0.5-0.6,0.5l2.9,4.2l-4.8-3.2c0,0-4.1-1.4-3.9,1.4c0.3,2.7,11.9,5.5,16.2,8.5c-0.8,0.1-10.6-3.4-15.3-1.2
		c-3.3,1.5-16.8-0.4-16.9-0.3c10.8,4.2,16.2,2,24.3,1.7c2.3-0.1,4.2,0.9,6.4,1.2c0.6,0.1,2.2,0,2.8-0.6c0.4,0.3,1.6,1,2.2,1.2
		l-0.1,0.1l0.1,0l-0.1,0c4.6,5.5,7.9,12.7,6.8,20c-1,6.3-7.3,10.3-13.4,11.2c0,0,8.5,1.6,12.9-4.6c4.8-6.7,1.1-17.4,1.1-17.5
		c4,4,5.8,9.7,4.9,15.4c-0.6,3.8-1.6,7.8-3.2,11.4c-0.3,0.8-0.8,1.5-1.3,2.3l-0.7,0.9c0.1-0.1,5.5-3.2,6.8-15.4
		c0.1,0.6,0.2,1.3,0.2,1.9c0.5,5.1-0.1,13.1,1.9,16c0,0-1-7.9,0.1-13.9c1.1,1.1,6.8,6.8,7.1,7.4c1.1,2.3-5,9.6-5,11.4
		c0,1.1,1.2,8.1,1.6,10.4c0.8,4.5,1.8,8.9,3.6,13.2c1.5,3.7,4.4,6.7,5.3,10.6c0.8,3.6-0.6,7.4-3.8,9.5c-0.4,0.3-14.6,8.1-15.2,8.7
		c-3.6,3-10.2,3.9-10.3,3.9c0,0-2.9,2.1-4.7,1.8c-2.8-0.4,0.4-3,1.4-3.9l-0.1,0c0,0-4.8,3.4-6.9,3c-1.8-0.3-1.6-1.4-0.5-2.2
		c1.7-1.2,3.7-2.9,3.7-2.9c-0.2,0.1-5.2,3.2-6.4,3.5c-2.6,0.7-3.1-1.2-3.1-1.2c-0.3,0.3-0.2,3.1,3.4,2.2c0.9,2.2,3.8,1.9,6,0.5
		c-0.4,4.8,7.8,0.6,8.1,0.4c5.8-0.5,9.3-3.6,10.6-4.8l11.7-1.6c1,1.4,3.1,0.6,3.8,0.4c0.1,1.6,2.1,2.3,3.4,2.7
		c5,1.6,9.7-3.5,11.9-7.1l0.4-0.6c26.4-7.4,51.1-23.2,69.5-43.2c16.1-17.6,27.8-39.3,33.8-62.3c1.1-0.7,2.1-1.4,2.9-1.9
		c-0.5,0.8-0.4,1.5-1.2,3.2c-0.7,1.5,0.7,0.3,0.7,0.3c1.8-2.3,9.2-7.9,9.9-8.2c-0.8,2,0.6,6.1,0.3,8.9c-0.3,3.5-1.5,6.6-2.6,10
		c0,0,0.1,0.2-3.7,9.8c-1,2.6,2.3,6.1,2.5,6.2c0.2,0.1,0.4-3.8,1.9-5c0,0-0.4-1-0.1-2.2c0.2-0.9,8.9-20.8,13.7-28.1
		c2.6-3,4.4-3.7,7-4.8c1.6,9.6-1.8,19-6.3,27.4c-1.2,2.1-3.3,3.8-4.7,5.7l-1.2-0.2c0-0.9,0.8-1.8,1.5-2.4c-0.3,0.3-1.9,0.6-2.5,2.4
		h-0.6c0.7-1.7,2.1-6.2,3.7-8.3c1.8-2.5,3.4-4.9,4.7-7.7c1.5-3.6,2.9-8.2,4.1-11.9c-0.1,0.2-0.5-0.8-1.2,0.7
		c-1.8,3.8-5.6,7.8-6.5,12.3c0.1-0.3,0.7,1,1.1-0.6c0.7-3,1.2-2.3,1.8-1.9c-0.2,0.5-0.5,1.1-0.7,1.6c-0.6,1.4-1.7,3.9-2.5,5.1
		c-1,1.3-3.9,5.5-4.7,6.8c-0.8,1.1-1.2,2.4-1.8,3.6c-1.5,2.8-4.8,5.2-4.9,8.2c0,0,0.6,0.1,1.1-0.6c1.8-2.8,3.4-5.1,5.6-6.6v0
		c1.4,0,2.7,0.3,3.9,1c0,0,1.7,1.7-2.1,5.9c-1.3-0.1-2.6-0.3-3.9-0.5c-2.8-0.5-2.4,1.1-2.4,1.1c5.2,1,11.3,1.3,14.8-3.1l-0.3-1
		c-1.6,2-3.7,3.3-6,3.4c0.7-1.1,1.9-2.5,2.3-3.7c0.3-0.9-0.5-1.7,0-2.5c0.6-1.1,2.3-4.4,3.5-6.6c4.6-8.4,7.3-18.6,5.8-28.1
		c2.1-1,4-2.4,5-4.6L431.2,268.3L431.2,268.3z M375.2,214.5l1.4-1l1.1,0.9c0.7,2.7,1.8,1.7,2.4,2.5c-2.2-0.1-9.3-0.6-7.7-7.8
		c0.8-3.4,4.5-9.3,4.5-9.3c1,0.2,1.9-0.3,2.9-0.4c1.1-0.1,2.5-0.2,3.3,0.7c0,0.1-0.5-2.3-4.8-1.2c-0.4,0.1-1.9,0.5-1.4-1.4
		c0.6-0.1,1.4,0,1.8-0.8c1.3-2.5,3.4-0.9,3.4-1c-0.7-1.5-1.6-1.8-2.7-1.2c-1,0.6-1.1,1.8-2.4,1.9c-2.3,0.2-3.3-2.5-1.8-4.8
		c1.5-2.4,5.7-1,7-0.1c1.1,0.7,2.1,1.5,3,2.4c2.1,4.2,7.2,20.9,8.7,29.5l-1,0.3c-1.7-6.3-6.5-12-12.7-14.2
		c3.5,1.7,10.6,8.6,11.7,14.6c-0.6-1.4-10.7-15.5-17-11.7C373.2,213.4,375.2,214.5,375.2,214.5L375.2,214.5z M390.5,258.4
		c-1.1,0.2-6,1.7-6.3-2.4c0.1-10.8-2.6-39.1-3.3-42.3c1,0.6,2,1.4,2.8,2.1c1.7,1.5,3.5,3,5,5.1c0.4,4.8,1.5,11.8,1.8,16.6
		C390.8,242.7,391.7,250.1,390.5,258.4L390.5,258.4z M392.6,258.1c0.9-6.8-1.2-31.2-1.2-31c0,0,1.8-1,3.1,0.1
		c1.5,10.2,1.9,20.6,1.2,31C394.7,258,393.6,258,392.6,258.1L392.6,258.1z M379,279.7l1.1-0.6L379,279.7z M265.1,161.9
		c-8.5,4.1-15.7,12-21.7,19.1c-2.4,2.9-6.1,4.3-9.7,5.8c0.3-0.6,10.7-23.2,11.6-24.2c0.1-0.1,2.5-1.4,4.6-1.4c2.8,0,5.6,0,8.3-0.1
		c1.8-0.1,4.4-0.7,6.7-0.1h0l0.3,0.8L265.1,161.9L265.1,161.9z M319,136.6c0,0,1.5,3.8-2.3,1.5c0,0-2.1,0.6-3.2-4.1
		C313.5,134,318.3,134.6,319,136.6z M311.8,124.5c0.5-0.1,3.2,1.1,3.2,1.1c2.6,0.3,1.9,1.7,1.9,1.7c-0.8,0.9-4.2-0.8-4.2-0.8
		C310.2,125.9,311.8,124.5,311.8,124.5z M316.3,89.2L316.3,89.2L316.3,89.2L316.3,89.2L316.3,89.2z M315.9,89.4l0.2-0.1l-0.4,0.3
		L315.9,89.4z M291,86.9c0.3-1.4,0.6-2.8,0.8-4.2l-0.1,0.1l0.1-0.1l0.3-0.6c1.2-0.2,3.3,0.7,3.8,1.7c1,2.1-0.1,5.4-2.5,5.7
		c-0.9,0.1-2.2-0.1-2.6-0.9L291,86.9z M289.7,91.8L289.7,91.8l0.3-0.6c1.1-0.2,2.8,0.5,3.6,0.9c1.4,0.9,0.5,3.3-0.1,4.7
		c-1.5-0.5-2.9-0.9-4.4-1.3C289,94.8,289.7,92.2,289.7,91.8L289.7,91.8z M266.8,91c-0.3,0.4-0.7,0.8-1,1.2
		C266.1,91.8,266.5,91.4,266.8,91z M98.2,283.4c0.7,0.2,1.4,0.5,2.1,0.9c1.1,0.5,2.6,0.8,3.5,1.6c-0.2,0-5.3-1-2.3,7.3l0.1,0.7
		C100.4,291.9,97.1,285.3,98.2,283.4L98.2,283.4z M89.9,285.1c0.1-1.2,0.4-2.3,1.1-3.1c0.4,0,3.9,0.6,5.3,0.9
		c0.1,1.6,0.8,6.4,5.2,11.3c-0.2,1.4-2,2.5-2.5,3.9c-0.7,2.3-2.4,5.3-2.2,7.5c-0.8-0.6-1.7-1.2-2.4-1.7l-0.4-0.3l0.1-0.1
		c-0.7-2.8,3.2-4.7,3.5-8.2c-0.3-0.1-0.5,0-1.1,0.6c-1.4,1.7-3.4,4.3-3.6,6.7c-1-0.9-2-1.9-2.5-3.2c-0.1-1.2-0.3-2.6-0.4-4
		c0.6-1.7,2.3-3.2,3.5-4.3c-0.4,0.3-2.4,0.5-3.7,2.1c-0.1-0.5,0-0.9-0.1-1.3C89.7,289.6,89.7,287.3,89.9,285.1L89.9,285.1z
		 M86.4,305.4c-1.5-0.9-2-3.7-1.9-3.9c0.2-0.6,0.2-1.3,0.2-1.9c0-1.1-0.6-3.7-0.9-4c-0.5-0.6-0.5-1.5-0.4-2.3c0.1-1,0.2-1.6,0.7-2.4
		c0.8-1.5,0.6-5.3,0.6-5.3c-0.5-0.6-1.1,0.5-1.1,0.6c0,0,0.1,3.5-0.6,5.2c-0.4,0.8-0.8,1.3-0.9,2.3c-0.2,1.2,0.7,2.2,0.9,3.2
		c0.5,2.5-0.1,4.5-0.2,5c0,0.3,2.6,6,3.4,7.7l0,0l0.1,1.2c-7.1-6.3-4.6-11-4.9-11.4c-0.4-0.6-0.7-1.9-0.9-2.6
		c-0.6-1.9-0.4-3.9,0.1-5.8c0.5-1.4,1-3,0.7-4.4c-1-4,2.1-4.6,3.7-5.3c0.4,0.1,3.1,0.3,4,0.4c-0.5,1.2-0.1,2.7-0.3,4
		c-0.3,2.3-1.1,12,0.3,15.5C87.9,301.7,86.1,303.5,86.4,305.4L86.4,305.4z M96.9,320.5c-0.2-3.6-5.8-4.9-6-5.1
		c-0.9-0.7-1.7-1.6-2.3-2.5c-1.2-1.9-0.8-4-1.1-6.1c-0.5-3.8,2.9-4.9,3-4.9l0,0l0.1,0c1.2,1.1,1.4,1.6,2.7,2.6
		c1.1,0.8,2.5,1.9,3.9,2.5c0.5,1,0.8,0.9,0.9,2.7c0.1,1.9-0.8,3.9-0.7,5.7c0.2,1.9,1,4.4,2.6,5.8C98.9,321,98,320.8,96.9,320.5
		L96.9,320.5z M242.6,352L242.6,352L242.6,352L242.6,352L242.6,352z M193.8,348.7L193.8,348.7L193.8,348.7L193.8,348.7z
		 M204.1,262.9L204.1,262.9L204.1,262.9z M298,278.6c2.3,4.9,0.6,4.8,0.2,5.2c-0.4,0.4-4.4,0.6-4.4,0.6c-4.4-0.1-8.6,0.2-13,0.1
		c-9.4-0.2-30.4-0.8-31.5-0.8c-0.4,0-0.7,0.1-0.9-0.2c-2.6-2.7-5.2-5.4-7.8-8c-3.2-3.2-6.3-6.5-9.4-9.7c-0.4-0.5-0.9-1.3-1.6-1.1
		c-5.5,1.4-5.8-3.3-5.9-3.3c-7.3,0.1-13-0.6-21.2,0.2c-1.2,0.1-3,1-4.2,0.9c-2.1-0.3,0-2.5,0.9-3.3c1.8-1.7,4.3-3.7,5.1-6.1
		c0.4-1.3,1.7-2.5,2.6-3.3c0,0,2.3,1.3,3.5,1.5c1.7,0.3,10.8,5.1,13.1,6.7c0.2,0.1-8.6-6.6-11.9-7.3c-1.4-0.3-2.7-0.7-3.7-1.7
		c1.9-1.4,6.5-1.6,6.4-1.7c0.2,0.3,6.7,5.3,8.6,7.9c0.1,0-4.2-5.4-6.5-7.6c-1.6-1.5-3.3-2.9-5-4.3c2.4,0,4.7,0.2,7.1,0.1
		c0.2,0,4,4.1,5.5,6.4c1.3,1.9,3.1,4.5,3.1,6.9c0,0.3-1.1,1.9-1,3.1c0.1,2,1.6,2,2.1,3.5l1.1-0.6c-0.5-1.5-2.1-1.5-2.1-3.3
		c0-1.2,0.9-2.1,1-3.2c0.4-2.3-1.9-5.2-3-7c-2.5-4-5.5-7.7-8.6-11.3c14.2,1.4,28.3,3,42.5,4.2c3.1,0.2,6.7,8,6.9,9.3
		c-7.5-1.7-15.4-2.2-23-2.1c-2.9,0-7.5-0.3-10.4,0.3c-3.3,0.7-3.6,4.7-3.5,4.5c0,0,1-3.8,7.1-3.8c3.4,0.1,8.8,0,11.9,0.2
		c11.9,0.5,24.6,1.6,34.1,9.1C285.9,262.2,296.6,275.5,298,278.6L298,278.6z M241.6,401.4l-0.8,0.5L241.6,401.4z M254.5,400.3
		c0.9-0.5,1.7-1.2,2.5-1.8C256.2,399.3,255.4,399.9,254.5,400.3z M343.4,314.9c1.9-1.1,4.7-3.5,4.3-3.3c4.1-2.4,6.5,0.1,6.7,0.3
		c-0.1,0-1.2,1.3-1.7,1.9c-0.2,0.2-3.7,4.7-9.1,7.6c-3.3,1.8-16.8-2.8-12-9.8c0.7-0.6,1.6-0.6,1.9-0.7c-0.5,0.8-0.5,1.2-0.7,2.1
		c-0.5,1.9,1.4,2.9,2.8,2.4C336.4,315.7,340.3,317,343.4,314.9L343.4,314.9z M348.3,275.1c-0.5-5.1-0.6-10.2-1-15.3
		c-0.4-5.1-1-10.2-1.7-15.3c-0.3-2.2-0.3-4.4-0.5-6.7c-0.2-2.4-1.1-9.5-1.9-11.3c1,1,3.5,2.8,3.6,2.9c-2.3-2.3-9.3-10.1-11.8-15.1
		c-2-3.5-3.7-7.1-4.7-10.8c8.1,1.4,18.9-0.2,23.1-1.9c5.7,11.6,8.8,24.6,10.7,37.3c0.9,5.8,0.9,11.7,0.9,17.5
		c-0.1,6.9-1,14.2-2.2,21c-1.1,6-2.7,12-5.8,17.3c-0.8,1.4-1.5,1.9-2.7,2.9c-2.7,2.2-5.4,3.2-8.7,5.9l-1.5,0.3
		c-1.2,0.7-1.8,3.2-2.5,4.4c-1.3,2.3-4.7,5.2-5.6,5.8c-1.1,0.7-2.4,0.7-2.3-1.8c0.1-0.9,9.1-14.3,10-15.6c0.8-1.1,1.6-2.3,2.7-2.9
		c0.5-0.3,1.2-0.6,1.5-1.2C349.2,290.3,348.6,277.7,348.3,275.1z M345.5,294.5l0.7-0.4L345.5,294.5z M253.9,299
		c-0.6,0.5-1.3,0.8-2,0.8C252.6,299.7,253.3,299.4,253.9,299z M260.5,397.4l-0.5,0.3L260.5,397.4L260.5,397.4L260.5,397.4
		L260.5,397.4z M291.3,385.4c-0.4,3.5-4.3,8.4-4.9,9.1c-4.1,5-9.8,4.9-10.4,2.9c-0.4-1.2,2.8-3.8,3.7-5c1.6-2.5,1.3-5.4,1.3-5.4
		c-0.2,2.2-2.2,4.5-3.6,6.1c-1.3,1.5-2.6,3.2-3.3,3.5c-0.7,0.5-1.8,0.5-2.4-0.3c-0.9-1.7,0.3-2.2,0-2c4.5-2.1,5.7-4.4,5.8-6.8
		c0,0.3-1.7,4.4-5.4,5.8c-1,0.4-1.3,0.6-1.7,1.4c-3.2-1.7-0.5-2.8,3.2-5c0.1-0.1,1.7-1.3,2.9-2.6c2.8-3,2.1-7.3,0.8-10.8
		c-0.7-1.9-1.5-3.8-2.1-5.9c-1.7-5.5-3.1-11.6-6.2-16.6c-0.6-1.1-1.3-2.2-1.4-3.5c-0.1-1.1-0.2-4.8,0.3-5.5c0.5-0.9,3.4-5.4,4.8-6.5
		l0,0c2.7,5,11.7,5.4,13.8,6c6.4,2,6.9,7.6,6.8,9.6c-0.1,2.2-1.2,4.3-1.8,6.4c-1.3,4.4-3.7,8.6-3.4,13.3
		C288.4,376.3,291.6,383.1,291.3,385.4L291.3,385.4z M292.8,389.8c-0.7,0.2-0.8-0.3-0.8-0.7c3.8-5.2-1-14.2-0.9-15.3
		c0.1-2.4,1.7-11.9,2.3-14.3c0.7-3.1,2.2-5.8,1.6-9c-0.6-3.2-3.5-5.6-6.3-7c-1.5-0.7-11.5-1.5-14.7-6.8c0-0.1,0.9-0.7-4.2-5.9
		c-2.1-2.1-4.2-4.3-6.3-6.5c-1.8-12-9.8-19-9.8-19v0v0h0c-0.9-1.9-1.9-3.6-3.2-5.3c1.3,0.1,2.7-0.3,3.7-1.1c1.8,0.6,3.8,0.9,5.6,1.2
		c4.9,0.7,9.7,1.3,14.6,1.9c5.2,0.6,10.3,1.1,15.5,1.5c5.1,0.4,10.3,0.3,15.4,0.5c4.8,0.1,9.6,0.1,14.5-0.2
		c3.9-0.3,8.1-0.3,11.8-1.5c8.1-2.7,13-13.7,14.3-12.9c0.9,0.6,0.2,3.4-0.7,3.9c-0.4,0.4-3.6,3.9-11.3,16.9c-0.1,0-4.4,0.5-4.5,5.1
		c-0.1,6.1,11.5,9.8,13.9,8.8c0,0,4.2-1.5,9.8-6.8c-1.2,2.1-2.4,4.3-3.2,6.5c-1.2,3.4-10.8,22.5-13.9,30.1c-1.5-3-3.6-5.6-6.4-7.4
		c-1.5-0.9-3.1-1.4-4.8-1.9c-1.8-0.6-4.9-1.4-5.8-3.3c-0.1-0.2-0.2-19-0.8-25.2c-0.2-2.1-1.4-6.1-2.8-7.8c-0.1-0.2,2.7,8.4,1.4,13.9
		c-0.5,1.9,0.5,9.2,0.8,15.4c-2.3-1.6-5.2-2.8-7.9-3.6c-2.7-0.8-2.8-4.9-2.8-7.1c0-2.3,0.4-4.6,0.6-6.9c0.3-3.8-0.1-7.9-1.1-11.6
		c0,0.1,0.3,8.4,0,12.2c-0.1,2.3-0.6,4.6-0.6,6.9c0,2.4,0.2,6.1,2.9,7.2c2.8,1.1,6.6,2.5,9,4.4c0,0.9,0.2,1.7,0.1,2.6
		c-0.2,2.6,8.3,4.9,9.9,5.6c3.5,1.7,6.2,4.6,7.8,8.1c0,0-4.1,10.1-0.5,13.6C322.3,378.1,308.8,385,292.8,389.8L292.8,389.8z
		 M380.4,314c-2,1.1-4.4,2.2-4.7,0c-0.1-1,3.2-10.2,4.2-13.9c2.2-8.3,5.4-25.3,5.8-25.2c0.5,0.1,2.4,0.9,3.7,0.7
		C388.7,284.2,383.3,308,380.4,314L380.4,314z M390.7,289c-2.2,8.4-4.1,10.5-3.9,9.5c1.8-8.5,4.3-12.9,5-21.6
		c0.7-0.2,1.2-0.4,1.5-0.5C392.6,281.4,391.9,284.3,390.7,289z M401.5,313.1c-2.5-2.8,1.6-10.1,1.7-10.2c0.1,0.1,1.2-0.3,1.7-0.5
		l0.2-0.1l0.2,0C401.2,307.9,401.6,312.4,401.5,313.1L401.5,313.1z M413,285.5c-0.7,2.2-1.7,3-3.3,6.3c-0.2-0.2-0.3-0.6-0.3-1.1
		c-0.2-3,2-8.1,2.7-9.3c0,0-2.8,0.9-6.6,20l-1.9,0.5c0.4-0.9,0.7-1.8,1-2.8c1.2-3.4,2-6.8,2.4-10.4c0.8-8.3,6.3-10.5,6.7-10.3
		C414.2,280.4,413.6,283.7,413,285.5"/>
</g>
</svg>
